<svg id="Laag_1" data-name="Laag 1" xmlns="http://www.w3.org/2000/svg" viewBox="0 0 362.25 300.06"><defs><style>.cls-1{fill:#7b952d;}.cls-2{fill:#e6dfc5;}.cls-3{fill:#5c7873;}.cls-4{fill:#e1bddb;}.cls-5{font-size:25px;fill:#1d1d1b;font-family:KumbhSans-Bold, Kumbh Sans;font-weight:700;}</style></defs><path class="cls-1" d="M49.93,132.35C39.37,140,38.26,157.59,47.77,166.5c2.11,2,4.79,3.87,5.12,6.74.52,4.51-5,7.32-6.5,11.6-1,2.7-.23,5.67.53,8.43,1.74,6.36,3.64,12.83,7.48,18.19s10.07,9.45,16.64,9c7.84-.5,17.44-6.5,22.24-.28,1.83,2.37,1.87,5.68,3.26,8.34,4.31,8.19,16.69,5.18,25.38,8.38,4.45,1.63,8.24,5.15,13,5.7,6.81.8,12.52-4.7,18.82-7.4s16.51.66,14.79,7.3a16.24,16.24,0,0,0,10.6-2.68c.1,6.16.81,13.44,6.15,16.51,7.29,4.2,15.53-2.91,22.75-7.25a36.77,36.77,0,0,1,30.19-3.33c2.18-5.56,6.41-12.28,12.21-10.83,3.91,1,5.89,5.31,9.21,7.59,5.69,3.91,13.87.72,18.29-4.59s6.38-12.18,9.53-18.32c2.71-5.26,6.46-10.53,5.94-16.42-.7-8-9.25-14.93-6.9-22.64,1-3.42,4-5.83,6.24-8.62,12.31-15.4.83-39,7.3-57.58,2.74-7.88,8.5-17.08,3.19-23.51-1.94-2.35-5-3.62-6.68-6.19-2.7-4.24-.93-11.16-5.29-13.68-1.9-1.1-4.35-.82-6.3-1.83-5.87-3-1.72-12.32-4.23-18.42-3-7.37-13.62-6.71-21.26-4.43a274.57,274.57,0,0,0-46.05,18.44C209,67,204.13,70.13,203.78,75c-.3,4.36,3.2,8.1,3.73,12.43.84,6.92-5.74,12.22-8.83,18.47-2.43,4.94-5,12.29-10.32,11-6.15-1.44-3.53-11-6.26-16.7-3.66-7.67-15.54-5.81-22.21-11.09-4.32-3.41-5.83-9.36-9.79-13.19-8-7.74-23.7-4.91-29.2-14.59-1.18-2.08-1.74-4.59-3.48-6.24-2-1.89-5-2.15-7.71-2.32-6.06-.36-12.31-.7-18.06,1.25s-11,6.75-11.51,12.81c-.16,1.76,0,3.72-1.07,5.1-1.91,2.41-5.66,1.14-8.72.92-5.51-.4-10.59,3.57-13.18,8.44s-3.23,10.53-3.81,16c-1.1,10.36-2.34,24.61-3.43,35"/><path class="cls-2" d="M46.14,125.87A29,29,0,0,0,37.77,135a29.65,29.65,0,0,0-3.5,10.16c-1.12,7.68,0,16,4.67,22.45a33.83,33.83,0,0,0,4.8,5.33c.78.69,1.48,1.42,2.2,2.16.48.49-.61-.75-.6-.78s.42.7.47.78c.37.54-.43-.91-.39-1s.23,1,.24,1.07l-.27-2a6.53,6.53,0,0,1,0,1.25l.27-2c0,.25-.11.49-.15.74-.11.66-.75,1.08.4-.8-.25.4-.43.83-.69,1.22a4.18,4.18,0,0,1-.46.66s1.29-1.59.56-.74c-.4.47-.79.94-1.2,1.41a23.6,23.6,0,0,0-5,8.08c-1.23,3.82-.53,8,.48,11.77.74,2.76,1.52,5.51,2.46,8.21,2.13,6.13,5,12.11,9.65,16.75a27.12,27.12,0,0,0,17.6,8.2c6,.34,11.71-2.36,17.6-3.2l-2,.26A15.12,15.12,0,0,1,88.5,225l-2-.27a10,10,0,0,1,1.21.25c.87.26.7.63-.66-.32l.53.29c.62.41.36.2-.76-.63.22.23.48.45.71.67.91.86-.86-1.49-.29-.35a5.44,5.44,0,0,1,.37.67c.33.71.23.46-.3-.72.22.88.55,1.75.8,2.63a19.16,19.16,0,0,0,7.53,11.13c5.79,4.06,13.47,3.8,20.18,4.69l-2-.27a32.34,32.34,0,0,1,4.87,1c.42.12.82.26,1.23.4.73.28.5.18-.67-.3l.75.35c.86.41,1.7.87,2.53,1.34,4.37,2.46,8.9,4.82,14.07,4.65,5-.16,9.5-2.2,13.76-4.65,1.76-1,3.5-2.08,5.31-3l1.07-.52c1.31-.65-1.89.67-.26.12a13,13,0,0,1,2.3-.51l-2,.26a16,16,0,0,1,3.91,0l-2-.26a14.47,14.47,0,0,1,2.58.62c1.54.53-1.5-.79-.36-.15.36.19.71.4,1.06.61.83.48-1-.69-.88-.71s.34.29.39.34a3.66,3.66,0,0,0,.44.44c.43.31-.94-1.4-.71-.94a3.36,3.36,0,0,0,.32.51c.48.64-.47-1-.45-1.14a6.24,6.24,0,0,0,.29,1.17l-.26-2a6.74,6.74,0,0,1,0,1.27l.26-2c0,.28-.09.54-.15.81a7.5,7.5,0,0,0,1.34,6.54,7.71,7.71,0,0,0,5.89,3,23.24,23.24,0,0,0,14.39-3.71l-11.29-6.47c.07,4.17.31,8.61,1.75,12.56,2,5.54,5.64,9.8,11.28,11.84,9.85,3.58,18.92-3.65,26.81-8.46,1-.62,2.06-1.2,3.13-1.72l.77-.35c.58-.27,1.37-.28-.43.17.53-.14,1.06-.42,1.58-.6a37.63,37.63,0,0,1,7.4-1.77l-2,.27a38,38,0,0,1,9.71,0l-2-.27a38.35,38.35,0,0,1,6.59,1.51,7.55,7.55,0,0,0,5.78-.76,8.65,8.65,0,0,0,3.44-4.48c.09-.23.57-1.37,0-.08s-.07.2.06-.08c.26-.56.53-1.11.82-1.64s.6-1.08.93-1.6a13.75,13.75,0,0,0,1-1.5c-.06.13-1.17,1.42-.51.69.24-.26.46-.52.71-.77s1.63-1.41.5-.53.39-.12.73-.34c.69-.46-1.87.6-.78.35.3-.07.59-.16.9-.21l-2,.27a7.11,7.11,0,0,1,1.9,0l-2-.27c.34.06.66.15,1,.22,1.3.28-1.66-.93-.55-.24a7.52,7.52,0,0,0,.85.53c-1.57-.73-1.13-.92-.46-.34,1.09,1,2,2.09,3,3.16,2.6,2.79,5.91,5.19,9.72,5.93A23.43,23.43,0,0,0,283,243.52a41.86,41.86,0,0,0,6.29-9.85c1.47-3.14,2.72-6.38,4.26-9.49s3.43-6.12,4.82-9.34a24.86,24.86,0,0,0,2.19-14.33c-.6-3.71-2.4-7.17-4.16-10.45-.74-1.38-1.49-2.75-2.15-4.17-.26-.57-.52-1.71.2.51-.14-.43-.33-.85-.47-1.29a14.57,14.57,0,0,1-.54-2.26l.27,2a11.21,11.21,0,0,1,0-3l-.27,2c.07-.46.2-.89.3-1.34.27-1.24-.22.78-.34.69s.3-.61.34-.7c.25-.46.55-.89.83-1.33s.83-.73-.46.57c.23-.23.42-.52.63-.77,1.76-2,3.58-4,5.17-6.18a32.24,32.24,0,0,0,5.24-12.35c1.8-8.87.89-17.81.44-26.76a78.27,78.27,0,0,1,.32-14.36l-.27,2c.74-5.12,2.71-9.67,4.59-14.45,2.1-5.33,3.88-11.73,1.8-17.35a18,18,0,0,0-5.87-8.2c-.86-.67-1.71-1.35-2.59-2,2.05,1.49.18.12-.24-.28-.19-.18-.36-.36-.54-.54-.87-.85.51.67.46.65s-.34-.56-.45-.72c-.86-1.26.55,1.68.17.49a48.53,48.53,0,0,1-1.26-6.1,16.18,16.18,0,0,0-3.77-8c-2.6-2.87-6.21-3.72-9.83-4.44-1.34-.27,1,.67.51.23-.23-.2-1.28-.89-.08,0s.4.26.16,0c-.79-.75,1.06,1.69.54.68-.71-1.43.6,1.87.11.32a11.55,11.55,0,0,1-.36-1.65l.27,2c-.4-3.19.08-6.42-.21-9.62-.42-4.68-1.87-9.32-5.61-12.43-6.81-5.68-16.25-5.4-24.41-3.31a206.44,206.44,0,0,0-26.55,9.24c-4.92,2-9.8,4.11-14.6,6.36a97.44,97.44,0,0,0-11.77,6c-5.26,3.43-9.38,8.23-9.77,14.75-.19,3.31,1,6.32,2.26,9.28l.73,1.65c.09.19.17.37.25.56.51,1.13,0-.11-.2-.5a9.55,9.55,0,0,1,1,3.44l-.27-2A11.89,11.89,0,0,1,200,90l.27-2a12.17,12.17,0,0,1-.47,2.07,6.3,6.3,0,0,0-.36,1l.47-1.13c-.1.22-.21.44-.32.66a31.36,31.36,0,0,1-2.13,3.52,79.89,79.89,0,0,0-5,7.53c-1.18,2.26-2.1,4.64-3.38,6.85-.29.51-.62,1-.93,1.49-.69,1.06,1.21-1.41.43-.55-.2.22-.38.44-.59.64-.55.55-1.07.59.68-.45l-.67.43c-.89.56,1.74-.52.95-.4-.3,0-.59.16-.89.2l2-.27a5.78,5.78,0,0,1-1.1,0l2,.27c-.38-.06-.74-.19-1.11-.25,1.38.61,1.74.77,1.08.45l-.42-.25c1.18,1,1.5,1.2,1,.73l-.33-.34c.91,1.23,1.16,1.54.75.95-.09-.13-.17-.27-.25-.41s-.15-.3-.22-.45c.57,1.42.73,1.78.47,1.09-.1-.34-.21-.68-.3-1-.18-.74-.3-1.5-.41-2.25l.27,2c-.67-5.1-.64-10.58-3.68-15-3.36-4.86-8.55-7.14-14.1-8.61-2.08-.55-4.18-1-6.23-1.72-.24-.08-1.34-.63-1.49-.54,0,0,1.87.84.92.38l-.84-.4c-.41-.21-.82-.44-1.21-.69l-.64-.43c-1-.66,1.43,1.32.45.31-.45-.45-.91-.87-1.33-1.35-.16-.19-.31-.41-.48-.59,1.49,1.57.63.81.27.29-.73-1.06-1.38-2.17-2-3.28A38.87,38.87,0,0,0,155.68,71c-3.77-3.84-8.87-6-14-7.41-2.12-.6-4.27-1.11-6.41-1.69-.91-.25-1.82-.52-2.72-.81l-1.46-.52c-.56-.21-1.63-.78.66.3l-.81-.37a22.21,22.21,0,0,1-2.42-1.38c-1.23-.78,1.51,1.29.26.2-.45-.39-.83-.81-1.23-1.23-.7-.72.61.8.61.83,0-.21-.39-.56-.51-.74a14.51,14.51,0,0,1-.86-1.6c-.57-1.2-1-2.47-1.72-3.62A14.87,14.87,0,0,0,115.27,46,62.77,62.77,0,0,0,105,45.11c-7.5-.25-15.67.56-22,4.94a24.69,24.69,0,0,0-7.83,8.21,19.89,19.89,0,0,0-2,5.18,55.57,55.57,0,0,0-.67,6.15l.26-2a5.36,5.36,0,0,0-.22,1.1c.57-1.2.68-1.47.31-.79.81-1,1-1.24.62-.85s-.14.18.89-.69c-.47.24-.36.2.34-.12,1.32-.58.06-.13-.34-.08l2-.27a14.9,14.9,0,0,1-3.13-.13l2,.26c-1.55-.21-3.1-.47-4.66-.6A19.37,19.37,0,0,0,58.1,69.25a28.13,28.13,0,0,0-10.26,15.5c-1.47,5.34-1.83,11-2.38,16.48Q44.72,108.6,44,116c-.52,5.46-1,10.93-1.61,16.39a7.49,7.49,0,0,0,2.19,5.3,7.5,7.5,0,0,0,10.61,0,8.62,8.62,0,0,0,2.2-5.3c1.38-13.13,2.21-26.35,4-39.44l-.27,2a47.72,47.72,0,0,1,1.31-6.59c.17-.57.35-1.13.55-1.69.1-.28.2-.56.31-.83-.48,1.1-.56,1.29-.23.56a23.78,23.78,0,0,1,1.38-2.53c.36-.56,1.56-1.71,0-.06.27-.28.5-.6.77-.89s.73-.74,1.11-1.09l.6-.51q-1.53,1.16-.6.48c.76-.48,1.57-.86,2.33-1.33-1.22.5-1.47.61-.74.34l.72-.23a12,12,0,0,1,1.47-.3l-2,.26a14.55,14.55,0,0,1,3.67.08l-2-.27c4.29.58,8.31,1.21,12.27-1.06a11.21,11.21,0,0,0,5-6.73,37.62,37.62,0,0,0,.67-6l-.27,2A14.07,14.07,0,0,1,88,66c.41-1.3-.87,1.79-.12.29.19-.38.4-.75.62-1.11s.45-.6.62-.91c-.81,1-1,1.24-.49.65.16-.19.32-.38.49-.56a20,20,0,0,1,1.78-1.66c.44-.36.19-.16-.78.6.2-.15.41-.29.62-.43s.63-.42,1-.61.87-.5,1.32-.72,1.71-.5-.42.14a41.85,41.85,0,0,1,6-1.54l-2,.27a63.56,63.56,0,0,1,15.47.1l-2-.26a14.35,14.35,0,0,1,2.51.52c.18.06.36.14.55.19-1.83-.49-1.24-.59-.76-.27.94.63-1.24-1.23-.14-.11.22.22.8.94,0,0s-.26-.34-.14-.11.39.69.56,1c.44.91.8,1.85,1.24,2.75a20.24,20.24,0,0,0,7.76,8.21c5.4,3.3,11.78,4.14,17.71,6,.71.22,1.41.46,2.1.73.15.06.29.13.44.18.61.2-1.09-.5-1.07-.46.14.22.9.41,1.13.53a20,20,0,0,1,1.75,1c.26.16.51.34.76.51,1.22.83-1.37-1.21-.31-.22a20.77,20.77,0,0,1,1.61,1.64c.82.9-1.1-1.54-.12-.16.27.37.52.74.76,1.12,1,1.51,1.85,3.1,2.8,4.64a24.59,24.59,0,0,0,8.88,9,43.12,43.12,0,0,0,9.79,3.49c1.54.39,3.08.78,4.59,1.28l1.15.41c1.37.5-1.72-.83-.42-.17.65.34,1.26.69,1.88,1.08.23.14.74.56-.31-.25s-.32-.25-.1,0,.46.47.69.71c.94,1-1-1.57-.31-.36l.51.92c.47.85-.43-1-.42-1,0,.13.15.42.19.55.12.38.22.76.32,1.14.18.8.31,1.6.42,2.41l-.26-2c.66,5.11.6,10.42,3.9,14.69a12.39,12.39,0,0,0,9.45,4.75,12.89,12.89,0,0,0,9.37-3.92c3.52-3.48,4.87-8.12,7.27-12.29,2.77-4.83,6.54-8.79,8.34-14.17A17.89,17.89,0,0,0,214.13,83c-.64-1.88-1.51-3.68-2.32-5.5-.23-.52-.48-1.5.21.5-.13-.37-.29-.73-.42-1.11a12.6,12.6,0,0,1-.54-2.26l.27,2a10.16,10.16,0,0,1,0-1.91l-.27,2c.07-.47.17-.9.28-1.36.26-1.06-1,1.68-.16.37a9,9,0,0,0,.62-1c-.61,1.36-1,1.2-.53.69l.59-.66c.3-.3.6-.59.92-.86a3.46,3.46,0,0,0,.56-.47c0,.06-1.58,1.15-.63.5.77-.53,1.55-1,2.36-1.5,4-2.33,8.3-4.25,12.52-6.18,2.26-1,4.54-2,6.83-3,.92-.39-1.38.58-.45.2l.66-.28,1.79-.74L240,60.91q6.73-2.64,13.61-4.92c4.45-1.47,8.94-3.06,13.6-3.72l-2,.26a26.94,26.94,0,0,1,6.89-.1l-2-.27a18.15,18.15,0,0,1,3.25.8c1.06.36-1.6-.77-.86-.36l.64.34c.25.14.48.3.72.45.91.59-1.29-1.18-.74-.56.27.3,1.39,1.56.49.38s.14.35.36.74c.54,1-.56-1.62-.34-.8.06.25.16.49.23.73a14.7,14.7,0,0,1,.35,1.85l-.27-2c.39,3.31-.11,6.66.25,10A16.64,16.64,0,0,0,276.3,71a13.52,13.52,0,0,0,7.37,5.68,26,26,0,0,0,3,.68c.37.07,1.05.41,1.4.34-.74.15-1.47-.76-.67-.26,1,.59-1.22-1.17-.67-.56a3.25,3.25,0,0,0,.42.41c.41.32-.74-.89-.73-1s.53,1,.57,1-.69-1.93-.43-1c0,.14.1.29.14.43.13.45.24.91.34,1.37.34,1.67.5,3.37.88,5a17.41,17.41,0,0,0,3.69,7.34A15.24,15.24,0,0,0,294,92.79l1.82,1.4c.08.07.77.56.76.59s-1.54-1.25-.6-.47l.58.49c.44.38.82.79,1.22,1.21.62.64-.92-1.38-.48-.61.15.26.32.52.48.79.3.5.25,1.08-.31-.82.07.23.17.45.24.67a11.31,11.31,0,0,1,.36,1.73l-.27-2a15.54,15.54,0,0,1,0,3.27l.26-2c-.55,4-2.25,7.81-3.78,11.55a51,51,0,0,0-3.38,13c-1,7.84-.13,15.74.24,23.59a73.43,73.43,0,0,1-.29,12.84l.26-2a35.48,35.48,0,0,1-1,4.78c-.21.74-.45,1.48-.71,2.21-.07.17-.14.33-.2.5-.26.76.46-1.13.42-1a7.26,7.26,0,0,1-.6,1.3c-.36.7-.74,1.39-1.16,2.06-.2.31-.4.62-.61.92l-.32.46c-.71,1,1-1.17.36-.47-1.17,1.37-2.42,2.68-3.57,4.07-3.08,3.76-5.48,8.13-5.12,13.17.3,4.29,1.89,8.07,3.88,11.83.86,1.62,1.75,3.21,2.53,4.87.08.16.15.33.23.49.43.92-.31-.67-.33-.79a9.76,9.76,0,0,0,.5,1.33,16.32,16.32,0,0,1,.66,2.74l-.27-2a14.46,14.46,0,0,1,0,3.66l.27-2a19.09,19.09,0,0,1-.67,2.88,15.51,15.51,0,0,0-.59,1.61c.48-1.13.57-1.33.24-.6l-.18.4c-.87,1.86-1.89,3.65-2.88,5.45-2,3.63-3.52,7.44-5.22,11.2a54.31,54.31,0,0,1-2.75,5.37c-.51.86-1.08,1.67-1.66,2.49-.33.46-.16.24.52-.66-.16.2-.33.41-.51.61s-.57.63-.88.93-.62.6-.95.89l-.57.47c1-.75,1.24-1,.77-.61-.73.48-1.44,1-2.22,1.37-.6.31-1.92.64.28-.05-.41.13-.8.3-1.21.43a14.81,14.81,0,0,1-2.62.59l2-.27a13.11,13.11,0,0,1-3.13,0l2,.27a12,12,0,0,1-1.35-.29c-.63-.18-1.51-.77.48.28-.31-.16-.63-.3-.94-.48s-1.56-1.1-.4-.22-.08-.11-.29-.32-.51-.5-.75-.75c-.57-.6-1.11-1.22-1.67-1.82-3.17-3.44-7-5.87-11.8-6.09-9.49-.42-15.1,8.91-18.13,16.53l9.22-5.23a43.75,43.75,0,0,0-28.47.56,65.56,65.56,0,0,0-12.36,6.62,62.3,62.3,0,0,1-5.4,3.2c-.47.24-1,.42-1.45.7,1.19-.49,1.42-.59.7-.3l-.72.26a16.26,16.26,0,0,1-2.89.71l2-.27a11.82,11.82,0,0,1-2.85,0l2,.26a13.93,13.93,0,0,1-1.93-.47c-.83-.25,1.66.84.58.22-.31-.18-.62-.36-.92-.55-1-.63,1.16,1.07.58.45-.18-.2-.41-.37-.6-.57-.52-.56-.64-1.19.33.5-.14-.23-.32-.45-.46-.68-.3-.48-.53-1-.79-1.48-.41-.78.69,1.82.3.68-.11-.32-.22-.65-.32-1a25.28,25.28,0,0,1-.79-3.85l.27,2a55.12,55.12,0,0,1-.37-5.74c-.09-5.43-6.39-9.69-11.28-6.48a15.86,15.86,0,0,1-1.47.88c-.26.14-.51.26-.77.38,1.14-.46,1.34-.55.6-.26a22.42,22.42,0,0,1-3.32.84l2-.27a17.7,17.7,0,0,1-3.85.09l7.23,9.49a13,13,0,0,0-4.19-13.24,20.37,20.37,0,0,0-12.92-4.49c-4.78,0-8.91,1.84-13,4.17-1.76,1-3.49,2.07-5.29,3-.47.24-1,.47-1.42.69-.72.32-.48.22.71-.3l-.72.28a17.8,17.8,0,0,1-3,.74l2-.27a13.14,13.14,0,0,1-3.07,0l2,.27a13.25,13.25,0,0,1-2-.41c-.32-.09-.63-.19-.94-.31-.56-.2-1.28-.75.49.23-1.13-.63-2.31-1.17-3.43-1.8a40.66,40.66,0,0,0-8.32-3.82c-4.72-1.4-9.75-1.48-14.61-2.11l2,.27a35.5,35.5,0,0,1-4.09-.77c-.59-.16-1.16-.36-1.73-.56-1-.35,1.88.93.57.23-.3-.15-.6-.3-.89-.48s-.53-.45-.72-.47c0,0,1.36,1.15,1,.73-.1-.1-.22-.18-.33-.28s-.41-.41-.61-.62c-.4-.39-.57-1.06.61.84-.11-.17-.24-.33-.35-.5s-.31-.54-.47-.81c-.65-1.07.52,1.55.13.36-.28-.88-.54-1.76-.79-2.65-1.24-4.41-3.59-8.74-7.88-10.83s-8.63-1.94-13.17-1c-3.64.71-7.16,2-10.84,2.52l2-.27a17.33,17.33,0,0,1-4.55,0l2,.27a17.83,17.83,0,0,1-2.28-.5c-.37-.11-.74-.25-1.11-.38-1.19-.39,1.34.64.53.23-.65-.32-1.29-.64-1.92-1-.34-.2-.67-.42-1-.64-.52-.36-1.25-1.19.23.23-1.06-1-2.2-1.91-3.18-3a4.76,4.76,0,0,1-.77-.92l.69.89-.49-.69q-.7-1-1.32-2.07c-.42-.71-.8-1.43-1.17-2.16-.2-.4-.39-.81-.57-1.22-.12-.25-.66-1.5-.16-.33s-.12-.32-.21-.56-.27-.7-.4-1.06c-.31-.84-.59-1.7-.87-2.56a62,62,0,0,1-2.65-10.07l.27,2a13.34,13.34,0,0,1,0-2.68l-.27,2a10.25,10.25,0,0,0,.4-1.73c-.57,1.28-.69,1.58-.37.89.1-.19.2-.39.31-.57s.35-.57.54-.84c1-1.52-1,1.13-.15.18,1.36-1.59,2.73-3.18,3.94-4.88a13.17,13.17,0,0,0,.18-15.15,32.53,32.53,0,0,0-4.72-5c-.62-.56-1.17-1.16-1.73-1.77-1.06-1.16,1,1.43.27.38-.24-.35-.49-.7-.72-1.06a20.65,20.65,0,0,1-1.09-1.95c-.14-.28-.75-1.66-.15-.27s0,0-.09-.29a23.56,23.56,0,0,1-1.12-4.69l.27,2a25.86,25.86,0,0,1,0-6.46l-.27,2a25.32,25.32,0,0,1,.89-4.11c.09-.3.19-.61.3-.91s.68-1.7.09-.31,0,0,.14-.27.29-.58.44-.86c.31-.56.63-1.11,1-1.65.2-.31.43-.6.64-.91.32-.49-1.36,1.65-.28.39.42-.49.86-.95,1.32-1.39.24-.23.48-.44.72-.65,1.38-1.19-1.25.9-.25.16a8.16,8.16,0,0,0,3.45-4.48,7.68,7.68,0,0,0-.76-5.78c-2-3.12-6.88-5.18-10.26-2.69Z"/><path class="cls-3" d="M191.4,148.34c5,3.54,12.44-.86,14.57-6.66s.85-12.2.41-18.35c-.61-8.62,5.74-16.53,8.45-24.72,1.68-5,9.59-10.43,7.84-15.44-1-2.85-9.75-7.58-11.87-9.74-5.56-5.64-15.4-9.64-21-15.28-4.51-4.58-10.72-9.66-17-4.2a13.86,13.86,0,0,0-2,2.16c-5.08,6.79-11.57,16.21-7.64,24.26L144.9,88.79a5.87,5.87,0,0,0-3.49,4.64c-.58,6,10.33,6.86,10.77,12.69a22.27,22.27,0,0,0-6.06,3.29,6.37,6.37,0,0,0,4.44,11.44,157.81,157.81,0,0,0,23.46-4c4.79,5.31,4,13.59,1.73,20.38s-5.68,13.51-5.17,20.65c.29,4.22,2,8.24,2.36,12.46,1.16,12.54-8.81,23-13.95,34.49-5.75,12.88-5.42,27.54-5,41.64.08,2.5.31,5.33,2.26,6.89a7.47,7.47,0,0,0,4.26,1.31c15.8,1.08,30.6-14.29,28.92-30-.41-3.82-1.63-7.6-1.27-11.44s2.38-7.56,4-11.2a61.28,61.28,0,0,0-2-53.26"/><circle class="cls-4" cx="62.64" cy="131.96" r="21.37"/><circle class="cls-4" cx="222.92" cy="68.85" r="21.37"/><circle class="cls-4" cx="299.61" cy="172.56" r="21.37"/><circle class="cls-4" cx="132.66" cy="182.13" r="21.37"/><text class="cls-5" transform="translate(125 189.81)">e</text><text class="cls-5" transform="translate(55.98 138.64)">v</text><text class="cls-5" transform="translate(217.26 76.54)">r</text><text class="cls-5" transform="translate(295.53 181.19)">i</text></svg>