<svg id="Laag_1" data-name="Laag 1" xmlns="http://www.w3.org/2000/svg" viewBox="0 0 362.25 300.06"><defs><style>.cls-1{fill:#7b952d;}.cls-2{fill:#e6dfc5;}.cls-3{fill:#5c7873;}.cls-4{fill:#e1bddb;}.cls-5{font-size:25px;fill:#1d1d1b;font-family:KumbhSans-Bold, Kumbh Sans;font-weight:700;}</style></defs><path class="cls-1" d="M164.63,59.41c-7.16-5-18.25-9.69-24.57-3.34-2.88,2.89-3.41,7.18-6.25,10.1-4.44,4.54-13,4.37-16.88,9.31-3.29,4.21-1.66,10.38-5.26,14.38-5,5.52-15.79,2.77-21.19,8S89.14,112.66,83.67,118c-4.15,4-11.31,3.21-16.7,5.7-5.22,2.4-8.13,7.57-10.19,12.51-7.71,18.51-8.45,39.59.73,56.85,7.87,14.82,22.16,25.73,36.07,36.21,7.13,5.38,15.24,11,24.74,10.47,3.63-.23,7.19-1.38,10.82-1.66,6.16-.48,12,1.56,18,2.83,17,3.64,35.11,1,52.66-1.61,11.83-1.77,27.37-7.13,22.48-19.89a18.9,18.9,0,0,0-6.87-8.44c-6-4.24-9.92-16.31-.2-19a13.39,13.39,0,0,1,3.1-.43,152.18,152.18,0,0,1,19.11.38,25.22,25.22,0,0,0,19.07-6.78,35,35,0,0,1,11.89-6.69c7.78-2.73,16.87-5.43,20.24-12.34,1.63-3.32,1.55-7,1.9-10.61A47,47,0,0,1,303.32,128c1.85-2,4-4.06,4-6.57,0-2.36-1.82-4.27-3.57-6L282.48,95.05c-3.76-3.62-7-2.28-12.56-2s-11.3,2.84-6.52,5.3c-6.38,4.31-14.73-1.57-18.37-7.65S237.71,77,230,76.36c-4.55-.37-9.42,2-13.64.54-6.51-2.24-6.08-11.27-11.56-15.09-9.66-6.74-33.34,6.76-40.16-2.4"/><path class="cls-2" d="M168.41,52.93c-5.8-4-12.68-7.12-19.81-7.41a18.43,18.43,0,0,0-11,3,19.86,19.86,0,0,0-5.32,5.45A36.52,36.52,0,0,0,130,58.19a20.67,20.67,0,0,1-1.38,2.53c-.85,1.29.93-1,.12-.14l-.84.83c-1,1,1.28-.84.38-.3l-1,.59a22.49,22.49,0,0,1-2.21,1.07l1.79-.75c-5,2.11-10.58,3.34-14.59,7.34a18.15,18.15,0,0,0-4.69,8.89c-.54,2.41-.74,4.88-1.69,7.18l.76-1.79c-.12.27-.57,1.5-.85,1.57.12,0,1.32-1.54.39-.54-.18.18-.37.34-.54.53-.65.66.72-.62.82-.61-.1,0-.5.34-.62.41a11.35,11.35,0,0,1-1.47.76l1.79-.75a36,36,0,0,1-8.16,1.91A27.58,27.58,0,0,0,88.52,90a17.42,17.42,0,0,0-7.8,10.17c-1,3.36-1,7-1.43,10.42l.27-2a18.2,18.2,0,0,1-1.1,4.43l.75-1.79c-.22.49-.5.94-.75,1.42s-.24.36.2-.23.52-.65.17-.24c-.2.2-.39.42-.59.62-.54.5-1,.38.59-.42-.25.13-.47.32-.71.47a13.1,13.1,0,0,1-1.68.83l1.79-.76a44,44,0,0,1-7.69,1.88A27,27,0,0,0,61.65,118c-6.19,3.83-9.59,10-12.27,16.58a78.14,78.14,0,0,0-5.68,37.64A70.54,70.54,0,0,0,49,192.62a69.21,69.21,0,0,0,10.19,16.15c8,9.81,18.19,17.57,28.23,25.17,5.71,4.32,11.35,8.43,18,11.09a32,32,0,0,0,11.14,2.22c4.43.06,8.73-1.21,13.09-1.82l-2,.27a29.42,29.42,0,0,1,7.5.09l-2-.27c5,.72,9.73,2.27,14.66,3.13a101.83,101.83,0,0,0,16.54,1.51c10.68.1,21.32-1.32,31.87-2.85,7.79-1.13,15.44-2.39,22.52-6.07s12.74-10.59,11.74-18.84a24.07,24.07,0,0,0-8.29-15.52c-.79-.67-1.62-1.31-2.46-1.93-.21-.16-.43-.33-.65-.48-.89-.62,1.54,1.37.76.58-.5-.51-1-1-1.51-1.5-1.15-1.33.86,1.24.28.39-.22-.33-.45-.65-.66-1a17.66,17.66,0,0,1-1.15-2.25l.75,1.79a15.2,15.2,0,0,1-1-3.5l.26,2a10.72,10.72,0,0,1,0-2.94l-.27,2a8.65,8.65,0,0,1,.49-1.81l-.76,1.79c.16-.36.35-.7.54-1,.38-.69.92-.56-.6.75.15-.13.27-.3.41-.44a4.83,4.83,0,0,0,.47-.42c-.1.14-1.76,1.19-.77.65a15,15,0,0,1,1.38-.71l-1.79.76a11.9,11.9,0,0,1,2.49-.67l-2,.27a86.82,86.82,0,0,1,15-.15c2.37.1,4.74.37,7.11.44A32.33,32.33,0,0,0,259.9,192c.85-.66,1.64-1.39,2.45-2.1l.62-.51c-1,.75-1.17.9-.55.43l1-.7a38.41,38.41,0,0,1,6-3.15l-1.8.76c6.68-2.8,14.06-4.36,20-8.69a23.39,23.39,0,0,0,8.55-10.75c1.63-4.26,1.41-9,2-13.41l-.27,2a45.7,45.7,0,0,1,3.17-11.42l-.75,1.79A48.71,48.71,0,0,1,305,137.8c.34-.49,2.15-2.81.58-.88.45-.55.89-1.12,1.35-1.66,1.09-1.28,2.3-2.46,3.4-3.72,3.37-3.88,5.72-8.72,3.91-13.93-1.45-4.17-4.76-7-7.84-10L290,91.82c-2.79-2.68-5.66-5.51-9.62-6.29a30.44,30.44,0,0,0-9,0c-4.28.38-8.89.68-12.59,3.14-2.76,1.84-4.7,4.6-4.62,8,.07,3.61,2.42,6.53,5.48,8.21V91.93a10.82,10.82,0,0,1-1.58.84l1.8-.75a10.46,10.46,0,0,1-2,.54l2-.27a10.92,10.92,0,0,1-2.68,0l2,.27a13.55,13.55,0,0,1-3-.86l1.79.76a18.1,18.1,0,0,1-2.57-1.37c-.54-.35-1.72-1.51,0,.09-.36-.34-.77-.64-1.14-1a23,23,0,0,1-1.82-1.87c-1.26-1.46.76,1.13,0,.1-.27-.39-.54-.77-.79-1.17-1.78-2.84-3.32-5.81-5.34-8.5-3-4-6.4-7.11-11.12-8.88-5-1.89-10.12-.63-15.23.08l2-.27a16.47,16.47,0,0,1-4.09.08l2,.27a9.82,9.82,0,0,1-2.12-.59l1.79.76c-.35-.17-.7-.34-1-.54a3.13,3.13,0,0,0-.46-.32s1.53,1.33.87.65c-.25-.27-.52-.53-.77-.8s-.59-1.07.65.87c-.12-.2-.27-.38-.4-.58a30.58,30.58,0,0,1-2.14-4.14c-1.8-4-4-7.53-7.71-10-6.14-4.14-14.21-3.1-21.08-2-3.59.54-7.14,1.27-10.73,1.76l2-.27a31.91,31.91,0,0,1-8,.28l2,.26a11.83,11.83,0,0,1-3.14-.82l1.79.76c-.53-.24-1-.57-1.49-.85s1.42,1.22,1.05.8a3.85,3.85,0,0,0-.3-.27c-.48-.47-1.29-1.57.43.67a8.19,8.19,0,0,0-4.48-3.44,7.63,7.63,0,0,0-5.78.75,7.54,7.54,0,0,0-3.44,4.48c-.42,1.83-.44,4.22.75,5.78a16.94,16.94,0,0,0,4.45,4.36,15.44,15.44,0,0,0,4.22,1.85,25.25,25.25,0,0,0,8.53.75c6-.4,11.9-1.83,17.87-2.64l-2,.27a33.38,33.38,0,0,1,8.53-.26l-2-.27a13.83,13.83,0,0,1,3.33.86l-1.79-.76c.47.21.9.45,1.35.7s1,1-.68-.58c.21.2.44.38.65.58s.4.42.6.64c.85.88-1.17-1.73-.37-.49.35.54.69,1.07,1,1.63,1.2,2.2,2,4.6,3.33,6.75a17,17,0,0,0,9.17,7.55c4.53,1.55,9.3.28,13.86-.36l-2,.26a17.6,17.6,0,0,1,4.47-.09l-2-.27a12.91,12.91,0,0,1,2.86.79l-1.8-.76A16.52,16.52,0,0,1,232,84.93c1,.66-1.62-1.37-.26-.19l.71.65c.62.61,1.19,1.27,1.75,1.94.79,1-1.25-1.7-.17-.19.2.27.39.55.58.83,2.08,3.07,3.7,6.42,6,9.36,6,7.82,17.35,13.55,26.64,7.55a7.67,7.67,0,0,0,3.72-6.48,7.49,7.49,0,0,0-3.72-6.47c-.69-.39-1.17-1,.35.39-.82-.76,1,1.69.62.75l.76,1.8-.05-.19.27,2a.77.77,0,0,1,0-.37l-.27,2,0-.18-.75,1.79a1.45,1.45,0,0,1,.18-.35l-.88,1.17c.35-.31.24-.22-.36.27-1.17.92.18,0,.58-.15l-1.79.75a19.15,19.15,0,0,1,4.27-1.1l-2,.27c1.79-.23,3.6-.31,5.39-.49a19.21,19.21,0,0,1,4.22-.11l-2-.27a9.4,9.4,0,0,1,2,.5l-1.8-.75a11.27,11.27,0,0,1,1.37.74c1.07.62-1.08-1-.55-.42.25.25.53.48.79.73l3.6,3.47,7.22,6.93,7,6.77c1.17,1.12,2.35,2.24,3.51,3.37.49.49.94,1,1.4,1.5s-.89-1.48-.35-.38c.18.35.38.67.54,1l-.76-1.79a6.9,6.9,0,0,1,.31,1.1l-.27-2a6.32,6.32,0,0,1,0,1.15l.27-2a7.06,7.06,0,0,1-.36,1.44l.75-1.79a9.62,9.62,0,0,1-.62,1.19c-.92,1.46,1.05-1.12.1-.07-.55.61-1.1,1.22-1.66,1.82a53.44,53.44,0,0,0-3.61,4.21,55.13,55.13,0,0,0-6.64,10.49A54.27,54.27,0,0,0,284,148.67c-.88,4.11-1,8.27-1.51,12.42l.27-2a19.47,19.47,0,0,1-1,4.19l.76-1.79a15.65,15.65,0,0,1-.92,1.83c-.14.23-.3.45-.45.69-.68,1.09,1.25-1.43.37-.48-.41.45-.81.9-1.25,1.32-.2.19-.41.37-.62.55-.51.43-1.38.8.45-.33a49.86,49.86,0,0,1-6.86,3.72L275,168c-5.32,2.2-10.9,3.67-16,6.32a37.68,37.68,0,0,0-8,5.59l-.76.67c-.23.19-1.22,1-.2.18s0,0-.22.14-.56.38-.85.56a26.59,26.59,0,0,1-3.77,2l1.79-.75a26.46,26.46,0,0,1-6.67,1.81l2-.26a43,43,0,0,1-7.86-.11q-4.53-.28-9.07-.3c-6.12,0-12.78-.28-17.87,3.65a14.72,14.72,0,0,0-5.69,13,24.24,24.24,0,0,0,5.55,13.17,14.49,14.49,0,0,0,1.74,1.85c.72.63,1.5,1.21,2.27,1.78a6.28,6.28,0,0,0,.52.38c-1.82-1.15-.7-.55-.25-.17s1,.88,1.46,1.36c.23.23.45.48.67.72s1.12,1.38.28.31-.19-.23,0,0,.42.65.62,1a17.81,17.81,0,0,1,.94,1.91l-.75-1.79a16.22,16.22,0,0,1,1,3.37l-.27-2a11.36,11.36,0,0,1,0,3l.27-2a10.15,10.15,0,0,1-.69,2.42l.76-1.79a11.11,11.11,0,0,1-.7,1.32c-.11.18-.23.35-.35.53-.44.69,1.33-1.61.64-.81-.35.39-.69.78-1.07,1.14s-1.71,1.43-.46.47-.26.16-.6.39-.9.56-1.36.82a31.61,31.61,0,0,1-3.1,1.5l1.79-.75c-7.4,3.07-15.55,3.87-23.42,4.93l2-.27c-12.12,1.62-24.43,2.7-36.61,1.07l2,.26c-5.59-.78-11-2.52-16.52-3.41a36.38,36.38,0,0,0-9.71-.58c-3.44.36-6.79,1.17-10.22,1.66l2-.26a25,25,0,0,1-6.46,0l2,.27a29.43,29.43,0,0,1-6.64-1.88l1.79.75A59.45,59.45,0,0,1,99,224c-1.84-1.36-3.66-2.75-5.49-4.13L92,218.68c-.45-.34-2-1.56-.16-.12-.94-.75-1.9-1.48-2.84-2.22-3.67-2.92-7.28-5.94-10.7-9.17q-2.57-2.41-5-5a40.62,40.62,0,0,1-4.51-5.3c0,.07,1.14,1.53.43.55l-.61-.81c-.36-.5-.71-1-1.05-1.49-.73-1.06-1.43-2.14-2.09-3.24a59.1,59.1,0,0,1-3.67-7.23l.76,1.79a59.62,59.62,0,0,1-3.93-14.54l.27,2a69.08,69.08,0,0,1,0-18.17l-.27,2a79.25,79.25,0,0,1,5.48-19.89l-.75,1.79c.51-1.2,1.05-2.38,1.67-3.53.3-.55.61-1.1.94-1.63.15-.25,1.21-1.48,1.15-1.71,0,.17-1.26,1.56-.36.49.2-.24.41-.48.62-.7.43-.46.9-.87,1.35-1.31,1-1-1.51,1-.34.25.27-.17.52-.36.79-.53a16.35,16.35,0,0,1,1.86-1l-1.79.75a45.66,45.66,0,0,1,8.49-2.12,23.22,23.22,0,0,0,9.65-4.09,17.2,17.2,0,0,0,6.19-9.69,89.41,89.41,0,0,0,1.22-9.64l-.27,2a17.69,17.69,0,0,1,1.11-4.42l-.76,1.79c.25-.55.57-1,.85-1.55.41-.74-1.26,1.44-.46.6.23-.24.47-.47.7-.7.78-.8-1.4,1-.69.51.22-.14.42-.29.64-.42a12.55,12.55,0,0,1,1.64-.82l-1.79.76a36.94,36.94,0,0,1,7.91-1.83,29.58,29.58,0,0,0,9.13-2.8,16.8,16.8,0,0,0,8-9.89c1-2.87,1-5.94,2.09-8.76l-.75,1.79a9.07,9.07,0,0,1,.55-1.13c.16-.28,1-1.41.11-.28s0,0,.26-.19.47-.4.69-.61c-1.56,1.48-1.09.82-.5.44.27-.17.54-.33.82-.48a20.08,20.08,0,0,1,2-1l-1.79.75c5.17-2.15,10.94-3.41,14.91-7.65,2.25-2.39,3.45-5.13,4.91-8a18.38,18.38,0,0,1,.95-1.67c.12-.19.9-1.25.09-.18s0,.1.18-.12a6.23,6.23,0,0,0,.76-.69c-.17.27-1.63,1.07-.58.49.52-.29,1-.59,1.57-.83l-1.79.76a12.14,12.14,0,0,1,2.78-.74l-2,.27a16.31,16.31,0,0,1,4,0l-2-.27a27.6,27.6,0,0,1,6.58,1.87l-1.8-.76a44.36,44.36,0,0,1,7.92,4.39c3.24,2.24,8.47.71,10.26-2.69a7.68,7.68,0,0,0-2.69-10.26Z"/><path class="cls-3" d="M121.76,216.38c6.24,3,11.86.63,17.81,2.05,10.57,2.52,21.58-1,32.44-.79,3.26.05,6.6.43,9.73-.45s6.11-3.48,6.15-6.74c0-2.16-1.2-4.12-1.77-6.22a15.8,15.8,0,0,1-.13-6.57,31.29,31.29,0,0,1,9.24-18,26.93,26.93,0,0,1,18.69-7.4c2.48.05,5.65.1,6.64-2.19a5.6,5.6,0,0,0,.23-2.61l-.42-6.27a3.12,3.12,0,0,0-.55-1.9,3,3,0,0,0-1.4-.79,15.48,15.48,0,0,0-7.56-.77,28,28,0,0,0-5.6,2c-4.64,1.93-9.58,3.07-14.29,4.83s-9.33,4.29-12.35,8.31c-2.58,3.42-3.81,7.67-6.15,11.25-4.57,7-12.73,10.63-20.44,13.88-5.06,2.13-10.78,4.28-15.86,2.2-2-.83-3.73-2.26-5.62-3.37-6.46-3.8-15.08-3.82-20.3-9.19a11.36,11.36,0,0,0-2.36-2.19,7.27,7.27,0,0,0-2.56-.74c-3.33-.48-7.2-.23-9.36,2.35-2.37,2.84-1.47,7.33.88,10.18s5.8,4.53,9,6.4a67.3,67.3,0,0,1,15.09,12"/><path class="cls-3" d="M233.48,110.75c-1.7-3.56,3.24-6.63,7.16-7.06s9-1.21,9.69-5.1c.25-1.5-.35-3.08.06-4.54.92-3.28,5.79-3.29,8.6-1.39s4.91,5,8.14,6c4.21,1.39,9-1.08,13.16.51s7.15,7.24,11.61,6.36c1.8-.35,3.18-1.74,4.45-3,3.57-3.71,7.38-7.57,12.33-9s11.3.67,12.69,5.63c.86,3.09-.36,6.34-1.56,9.32-3.24,8-7.91,17.2-16.46,18.37-7.22,1-13.63-4.34-20.65-6.27-6.29-1.72-13-.67-19.4.4-10.72,1.78-21.65,3.62-31.27,8.69-4.7,2.47-9.06,5.71-14.13,7.28s-11.31,1.07-14.71-3a6.54,6.54,0,0,1-1.63-3.82c-.2-5.06,6.4-6.91,11.31-8.15a38,38,0,0,0,20.78-13.75"/><circle class="cls-4" cx="87.58" cy="109.07" r="21.37"/><circle class="cls-4" cx="225.77" cy="87.7" r="21.37"/><circle class="cls-4" cx="122.72" cy="230.69" r="21.37"/><circle class="cls-4" cx="174.65" cy="157.54" r="21.37"/><text class="cls-5" transform="translate(218.84 94.71)">s</text><text class="cls-5" transform="translate(116.66 238.37)">s</text><text class="cls-5" transform="translate(80.31 115.75)">a</text><text class="cls-5" transform="translate(166.72 165.22)">u</text></svg>