<svg id="Laag_1" data-name="Laag 1" xmlns="http://www.w3.org/2000/svg" viewBox="0 0 362.25 300.06"><defs><style>.cls-1{fill:#7b952d;}.cls-2{fill:#e6dfc5;}.cls-3{fill:#5c7873;}.cls-4{fill:#e1bddb;}.cls-5{font-size:25px;fill:#1d1d1b;font-family:KumbhSans-Bold, Kumbh Sans;font-weight:700;}</style></defs><path class="cls-1" d="M64,165.22c-3.6,6.62-6.37,16.57.19,20.26,1.44.81,3.19,1.16,4.31,2.37,1.42,1.52,1.35,3.84,1.42,5.92.37,10.88,7.52,21.48,17.81,25,5.69,2,12.77,2.35,16,7.45,1.81,2.89,1.9,6.81,4.38,9.15,2.77,2.62,7.29,2.12,10.57,4.07,3.72,2.22,4.92,6.92,6.77,10.84,6.7,14.24,24.28,20.11,40,19.64s31-5.68,46.65-7c8.85-.74,18-.27,26.41-3,16.44-5.35,28.74-22.31,46-22.47,6.23-.06,12.81,2.13,18.47-.48,8.35-3.86,9.26-15.17,8.94-24.37-.91-26.54-2-53.82-12.58-78.17-2.58-5.93-5.82-11.76-10.77-15.9a26,26,0,0,0-42.28,15.28c-.42,2.33-.7,5-2.65,6.38-1.56,1.09-3.65.89-5.53.65-13.5-1.72-29.46-5.29-34.28-18-2.47-6.52-1.39-14.49-5.83-19.88-2.35-2.86-5.88-4.45-9.32-5.84-17.64-7.15-37-12.2-50.6-25.53-7.41-7.27-12.56-16.55-19.67-24.12S101,33.89,90.89,36.2c-7.32,1.66-13.28,7.38-20.67,8.66-3.76.65-7.62.1-11.43.28-8.09.4-15.6,4.08-22.85,7.68-3,1.5-6.26,3.24-7.56,6.35-1.85,4.44,1.17,9.41,4.64,12.74s7.71,6.33,9.21,10.9C43.9,87.89,40.68,93.58,36,95.92c-6.54,3.29-9.27,11.24-5.52,17.53l.09.16c3.15,5.18,7.36,10.56,6.47,16.55-.41,2.75-1.9,5.47-1.19,8.15.6,2.28,2.63,3.86,4.53,5.25C48.45,149.46,56,159.33,64,165.22"/><path class="cls-2" d="M57.53,161.44a40.86,40.86,0,0,0-4,10.32c-.84,3.78-1.21,8.05.12,11.78a15.34,15.34,0,0,0,3.8,6.16A18.4,18.4,0,0,0,62.69,193a5.42,5.42,0,0,0,1.09.57s-1.23-1.08-.72-.55-.58-.8-.53-.73c.7,1.06-.6-1.5-.16-.3.09.24.17,1.06,0-.17s0-.23,0,.05c.15,2.28.26,4.48.59,6.75a35.16,35.16,0,0,0,11.17,20.58,34.47,34.47,0,0,0,11.24,6.71c3.16,1.15,6.5,1.68,9.67,2.81.29.1,1.59.63.35.11s0,0,.3.17.65.35,1,.55l.46.3c.9.55-.61-.51-.65-.51.21,0,.65.6.8.75a4.72,4.72,0,0,0,.37.41c.5.47-.68-.73-.61-.77s.56.95.61,1c.59,1-.59-1.6,0-.09a59.65,59.65,0,0,0,2.48,6.43,14.37,14.37,0,0,0,5.5,5.73,22.41,22.41,0,0,0,6.21,2.24c.81.19,1.62.37,2.42.61l.59.19c.65.2.55.55-.66-.3.28.2,1.6,1.07.63.25s.08.1.29.31,1.11,1.3.31.29,0,.12.2.39.48.82.69,1.24c.38.74.69,1.5,1,2.25,0,.09-.66-1.58-.35-.83l.24.58,1.16,2.75c6,13.88,20.73,21.78,35.14,23.84a69.83,69.83,0,0,0,11.55.83,114.8,114.8,0,0,0,14.91-1.5c8.94-1.37,17.73-3.54,26.68-4.88.52-.08,1.07-.12,1.59-.23,0,0-1.53.19-.66.09l.79-.1c1.16-.14,2.31-.26,3.47-.36,2.27-.2,4.54-.31,6.81-.42,4.87-.23,9.69-.53,14.52-1.23,7.89-1.15,15.12-4.49,21.79-8.77,5.83-3.76,11.31-8.08,17.41-11.42.69-.38,1.39-.74,2.1-1.09l1.07-.51c.3-.13,1.77-.77.53-.24s.08,0,.37-.13.73-.27,1.1-.39c.79-.27,1.59-.51,2.41-.72s1.51-.35,2.27-.48l.58-.09c.72-.13-1,.12-1,.14a5.61,5.61,0,0,0,1.37-.12,38,38,0,0,1,6.12.22c4.59.45,9.15.94,13.69-.28a20.65,20.65,0,0,0,11.35-8.12c4.3-5.88,5.17-14,5.2-21,0-8.28-.49-16.61-1-24.87a269,269,0,0,0-3.06-27.6,138.59,138.59,0,0,0-6.45-25c-3.1-8.44-6.86-17.12-13.34-23.57a34.06,34.06,0,0,0-24.22-9.77,33.24,33.24,0,0,0-23.22,9.87,32.87,32.87,0,0,0-6.76,9.82,34.87,34.87,0,0,0-2.19,6.28c-.17.79-.29,1.6-.44,2.39-.08.4-.16.8-.26,1.2-.05.19-.1.39-.16.58-.44,1.46.18-.54.26-.52s-.27.47-.28.5c-.3.64.61-.8.59-.77s1.45-.93.74-.56.9-.33.82-.31c-1.22.38,1.6,0,.29,0-.53,0-1,0-1.57-.06l-1.29-.15-.56-.07c-.16,0,1.88.26,1.06.14L236,133a87.61,87.61,0,0,1-9.73-2c-1.54-.42-3.08-.91-4.58-1.48l-1.06-.41c-1.19-.47,1.55.71.4.17-.73-.34-1.46-.68-2.17-1.06a39.2,39.2,0,0,1-4-2.5c-.64-.44,1,.67.81.63s-.31-.26-.41-.34l-.79-.7a22.49,22.49,0,0,1-1.6-1.64,3.71,3.71,0,0,1-.68-.81c-.07-.16,1.05,1.49.64.81-.09-.15-.21-.29-.31-.43a17.56,17.56,0,0,1-1.19-2c-.17-.32-.31-.66-.48-1-.33-.59.41.92.39.94a5.53,5.53,0,0,0-.21-.55,23.76,23.76,0,0,1-.84-2.88c-.82-3.51-1-7.14-2-10.63a21.71,21.71,0,0,0-7.11-11.6c-3.79-3-8.06-4.73-12.53-6.49-7.29-2.87-14.7-5.44-21.95-8.43-1.28-.53,1.37.59.1,0l-1.26-.55c-.91-.39-1.81-.8-2.71-1.22q-2.58-1.2-5.09-2.53a74.28,74.28,0,0,1-9.74-6.1c-.18-.13-.36-.28-.54-.4s1.25,1,.62.48l-1.05-.85c-.76-.63-1.5-1.27-2.22-1.94a58.89,58.89,0,0,1-4.21-4.3q-1-1.11-1.92-2.25c-.37-.44-.73-.89-1.09-1.34l-.46-.58c-.14-.18-.85-1.09-.18-.22s-.3-.4-.46-.62l-.9-1.18-1.92-2.59C128.12,47.1,122.62,40,115,34.75S98,26.89,88.89,29c-4.21,1-8.12,3.09-11.89,5.13-1.65.89-3.42,1.62-5,2.54,0,0,1.53-.6.76-.32-.21.08-.41.17-.62.24-.42.16-.84.31-1.27.44s-.85.25-1.29.36-1.93.31-.85.22-.87.06-1.17.08l-1.63,0c-1.18,0-2.37,0-3.55-.06a48.78,48.78,0,0,0-8.1.52,54.39,54.39,0,0,0-13.86,4.31,91.78,91.78,0,0,0-11.05,5.4c-5,3-8.45,7.43-9,13.35-.46,5.25,2.32,10.14,5.53,14,2.35,2.85,5.43,5,7.89,7.73.2.22,1.12,1.37.36.37s.09.18.26.43.43.71.62,1.08c.74,1.42-.33-1.2,0-.06,0,.1.33,1.18.3,1.18s-.13-1.74-.15-1c0,.27,0,.54,0,.8,0,0,0,.6,0,.6s.31-1.72.13-1c-.11.45-.19.91-.33,1.35-.06.2-.14.38-.2.57-.22.73.31-.92.36-.86a4.94,4.94,0,0,1-.58,1.07c-.1.17-.24.33-.33.51-.36.66.59-.72.57-.7-.34.33-.62.72-1,1.06s-1.32,1.1-.3.35-.14.08-.4.24c-.73.45-1.52.8-2.24,1.28-7.41,4.87-11.81,14.61-8.53,23.27,1.53,4.06,4.23,7.39,6.21,11.22a8.75,8.75,0,0,0,.61,1.27s-.57-1.49-.3-.73c.07.22.16.43.24.65.15.43.29.86.4,1.3s.4,2.06.21.77,0,.25,0,.57,0,.46,0,.68c0,.84-.41.31.09-.59a14.62,14.62,0,0,0-.81,3.14,16,16,0,0,0-.18,8.91,15.09,15.09,0,0,0,4.5,6.74c1,.87,2.11,1.67,3.19,2.47.23.17,1.43,1.08.47.35s.53.44.82.69c1.5,1.26,2.94,2.59,4.35,4,6,5.74,11.46,11.85,18.13,16.8a7.54,7.54,0,0,0,5.78.76A7.69,7.69,0,0,0,70.49,169a7.54,7.54,0,0,0,.75-5.78,8.69,8.69,0,0,0-3.44-4.48l-.36-.26.46.35a7.37,7.37,0,0,0-1.06-.86c-.71-.59-1.4-1.2-2.09-1.82-1.54-1.39-3-2.84-4.49-4.3-2.87-2.86-5.66-5.79-8.6-8.56-1.25-1.17-2.52-2.31-3.84-3.39-1.07-.88-2.17-1.73-3.28-2.56-.33-.25-.67-.54-1-.77,1.9,1.19.34.26-.11-.17-.25-.24-.58-.75-.87-.91l.67.87a6.1,6.1,0,0,1-.41-.7l.43,1c-.2-.73-.2-.52,0,.65l0-.47c0-.83,0-.64-.15.56a6.21,6.21,0,0,0,.31-1.44c.12-.48.26-1,.39-1.44a27.48,27.48,0,0,0,.89-4.87c.41-4.69-1.35-9.33-3.57-13.37-.92-1.68-2-3.29-3-4.91-.43-.69-.89-1.38-1.28-2.1s-.35-1.48.09.39c-.12-.49-.35-1-.47-1.45s-.13-.74-.22-1.09c.56,2,.15,1.3.13.53,0-.37,0-.73,0-1.1,0-1.43-.4,1.94-.09.54.16-.69.46-1.41.58-2.1-.27,1.52-.64,1.38-.32.78.22-.44.44-.88.7-1.3s.44-.6.63-.92c-1,1.77-.68.88-.21.38.27-.28.55-.53.82-.79,1-1-1.53,1-.31.22a44.93,44.93,0,0,0,5.55-3.74,19.43,19.43,0,0,0,6.44-12.9c.47-5-1.75-9.49-4.78-13.27-2.25-2.81-5.15-4.93-7.63-7.51-.32-.33-.6-.67-.91-1-1.1-1.18.94,1.44.06.09a21.12,21.12,0,0,1-1.19-1.92l-.2-.39c-.34-.73-.26-.53.23.58a5,5,0,0,0-.38-1.23c-.48-1.42,0,1.83,0,.34,0-.28,0-.55,0-.83.07-.81,0-.55-.1.75l.1-.41q.38-1.12-.3.6a4.71,4.71,0,0,0,.63-1.06l-.67.87c.18-.21.37-.41.56-.6.56-.55,1.34-.72-.25.09.75-.38,1.42-1,2.16-1.38s1.81-1,2.73-1.42c1.86-.93,3.73-1.84,5.62-2.71l1.42-.64c.42-.19,1.1-.68-.35.15a19.68,19.68,0,0,1,3.38-1.3,43.49,43.49,0,0,1,5.94-1.63c.22,0,1.33-.38,1.52-.26l-1,.13,1-.1c1.25-.1,2.51-.12,3.76-.1,4.63.06,9.27.19,13.72-1.29a79.39,79.39,0,0,0,11.53-5.46c.8-.42,1.61-.83,2.42-1.22.62-.29,1.73-.4-.14,0a11.9,11.9,0,0,0,1.25-.48,23.76,23.76,0,0,1,2.58-.76,7.39,7.39,0,0,0,1.34-.26c-1.25.16-1.46.19-.65.11.3,0,.59-.05.89-.06a18.42,18.42,0,0,1,2.23,0c.43,0,.9.13,1.33.12-2,0-.94-.12-.23,0a26.28,26.28,0,0,1,2.61.67c.43.14.86.28,1.28.44s.57.21.85.33c-1.09-.47-1.26-.54-.53-.22a43.46,43.46,0,0,1,4.85,2.71c.39.26.77.53,1.15.8l.38.27c.64.48.5.37-.4-.32.17.3.82.66,1.09.88q.72.6,1.41,1.23c1.28,1.17,2.48,2.4,3.64,3.69.66.74,1.3,1.49,1.93,2.25a18,18,0,0,1,2.17,2.7c-.9-1.68-.3-.39,0,0l.9,1.19,1.78,2.38c1.56,2.11,3.13,4.2,4.74,6.27a73.8,73.8,0,0,0,17.8,16.7c12.94,8.54,28.1,12.89,42.38,18.61l1.26.51c1.51.61-1.62-.74-.14,0,.81.37,1.63.74,2.42,1.17.39.21.77.43,1.15.67s.8.68,1.11.74l-.82-.64c.23.19.45.38.66.58s.81,1.07,1.22,1.28l-.66-.85c.17.23.32.46.47.7s.42.71.61,1.08l.18.38c.32.71.23.5-.27-.65a6.57,6.57,0,0,0,.4,1.18,37.16,37.16,0,0,1,1.1,5c.58,3.53,1,7.08,2.35,10.41a28.59,28.59,0,0,0,6.3,9.77c5.12,5.11,12,8.19,18.87,10.12a86.63,86.63,0,0,0,9.15,2c4.28.7,9,1.84,13.28.62,5.57-1.59,8-6.55,9-11.8a32.44,32.44,0,0,1,1.29-4.73c.5-1.45-.79,1.66-.13.28.18-.37.35-.74.54-1.11.44-.85.92-1.68,1.44-2.48.23-.35.47-.68.7-1,.87-1.26-1.16,1.37-.16.22.53-.62,1.07-1.24,1.64-1.83s1-1,1.5-1.41c.3-.26.66-.5,1-.79-1.58,1.58-.42.34.13,0s1.39-.89,2.11-1.28c.36-.19.72-.38,1.09-.56.65-.31,1.63-.37-.28.1.81-.2,1.61-.6,2.43-.83s2.05-.33,3-.65l-1.13.15.87-.09c.44,0,.88-.06,1.31-.08a25.41,25.41,0,0,1,2.62,0,9.78,9.78,0,0,0,1.31.11l-1.13-.16.87.14a25.54,25.54,0,0,1,2.56.58c.84.23,1.66.53,2.48.82,1.51.54-1.6-.79-.18-.07.39.2.79.38,1.17.58a25.18,25.18,0,0,1,2.25,1.34,8.37,8.37,0,0,0,1.07.76c-.93-.73-1.1-.85-.49-.36.25.2.48.41.72.62.7.63,1.36,1.29,2,2,.31.35.62.7.92,1.06l.3.36c.5.63.39.49-.31-.4-.08.28,1.4,2,1.61,2.34.59.93,1.15,1.89,1.68,2.86.83,1.53,1.59,3.1,2.3,4.69a6.83,6.83,0,0,1,.59,1.33l-.36-.84.39,1c.45,1.1.89,2.22,1.3,3.34a137.3,137.3,0,0,1,6.36,24.18c.36,2,.67,4.05,1,6.08l.07.51c.12.84.09.68-.06-.46a7.72,7.72,0,0,1,.19,1.53c.15,1.19.29,2.39.42,3.58.44,4.11.78,8.23,1,12.35.55,8.29,1,16.64,1.08,24.94,0,1.41,0,2.82-.09,4.23-.05.77-.11,1.54-.19,2.31-.06.6-.4,1.93.08-.46-.1.49-.16,1-.25,1.5a27.44,27.44,0,0,1-1.16,4.29c-.25.65-.88,1.4.21-.47-.18.31-.3.65-.47,1-.38.72-.85,1.36-1.28,2,1.32-2.12.18-.29-.43.27-.16.14-.37.29-.52.45,1.29-1.41,1.06-.78.39-.34-.29.19-.6.37-.92.54-1.32.71.19-.17.24-.06s-1.28.4-1.38.42c-.3.08-.62.15-.93.2-.82.14-.63.11.57-.07a6.59,6.59,0,0,0-1.44.09c-.49,0-1,0-1.47,0-1,0-2-.1-3-.19-2.16-.2-4.31-.49-6.48-.57-7.63-.3-15,2.23-21.58,5.89-5.84,3.25-11.12,7.38-16.72,11a66.54,66.54,0,0,1-8.87,5c-.55.25-1.8.53.31-.12-.25.08-.51.21-.75.3-.79.3-1.58.58-2.39.83a49.39,49.39,0,0,1-6.59,1.47c-1.8.3,1.75-.18-.07,0l-1.56.16c-1,.1-2.08.18-3.13.25-2.27.15-4.54.24-6.82.35-4.74.22-9.43.69-14.14,1.36-8.69,1.23-17.23,3.31-25.89,4.74-1.06.18-2.12.33-3.18.49-1.84.29,1.73-.2-.12,0l-1.6.19c-2.3.26-4.62.45-6.94.53-1.63.06-3.26.06-4.9,0-.8,0-1.6-.09-2.39-.16l-1.2-.11c-.28,0-2.09-.26-.61-.06s.06,0-.19,0l-1.2-.2c-.79-.14-1.58-.3-2.36-.48a48.45,48.45,0,0,1-5-1.39c-.75-.25-1.5-.52-2.24-.81-.52-.2-1.73-.87.33.16-.35-.18-.72-.32-1.08-.48a41.58,41.58,0,0,1-4.45-2.42c-.65-.41-1.29-.84-1.91-1.29l-.61-.46c1.89,1.35.73.56.32.22a30.45,30.45,0,0,1-3.54-3.46c-.24-.28-.47-.61-.73-.88,1.5,1.55.62.81.25.3s-.87-1.27-1.26-1.93-.77-1.35-1.12-2.05l-.51-1.1c-.83-1.87.46,1.12,0-.11-1.63-3.91-3.24-8-6.56-10.82a18.36,18.36,0,0,0-6.94-3.7c-.8-.24-1.62-.41-2.43-.6a18.62,18.62,0,0,0-2.76-.77l1,.45c-.24-.11-.48-.23-.71-.36-1.26-.55,1.16,1.28.23.23l-.29-.29c-.5-.59-.36-.4.44.57a4.94,4.94,0,0,0-.59-1c-.73-1.31.6,1.73.13.28-.12-.39-.27-.78-.4-1.17-.26-.79-.52-1.58-.82-2.36a18.28,18.28,0,0,0-9.1-10.3A65.85,65.85,0,0,0,92,212.26c-.63-.18-1.25-.36-1.87-.57-.38-.12-.76-.27-1.13-.4-1.44-.5,1.65.81.29.12-1.59-.8-3-1.77-4.49-2.72,1.82,1.15.71.55.26.16s-.61-.54-.9-.82c-.59-.55-1.16-1.14-1.7-1.74l-.79-.93c-1-1.16,1,1.48.19.22-.54-.79-1.08-1.57-1.56-2.39s-.79-1.43-1.14-2.17c-.1-.21-.65-1.49-.12-.23s0,0-.08-.24a33.69,33.69,0,0,1-1.39-5.12c-.31-1.52.18,1.92,0,.38,0-.41-.08-.82-.11-1.22,0-.84,0-1.68-.1-2.51-.19-3.43-1-6.6-3.29-9.22a15,15,0,0,0-5.35-3.48c-.36-.17-.69-.38-1-.55-.53-.26-.68-.88.69.58-.21-.22-.47-.44-.7-.66-.86-.79,1.12,1.77.24.27-.4-.67-.33-1.32.21.68-.08-.31-.21-.6-.29-.9s-.12-.64-.21-1c.59,2.09.17,1.47.13.68a18,18,0,0,1,0-2.08c.06-1.42-.36,2-.09.56.06-.36.12-.72.2-1.08a30.22,30.22,0,0,1,1.31-4.35c.21-.53.86-1.69-.18.39.17-.33.3-.68.46-1,.31-.66.64-1.3,1-1.94,1.85-3.45,1-8.32-2.69-10.26-3.49-1.84-8.28-1-10.27,2.69Z"/><path class="cls-3" d="M245.08,149.09l7.72,23.47c1.35,4.12,2.95,8.56,6.6,10.89,6.94,4.44,16-1.54,20.77-8.24s8.91-15,16.79-17.46c8.3-2.54,19.13,2.17,25-4.23,5.05-5.5,1.71-14.4,3.53-21.64.89-3.51,3-6.61,3.87-10.13,1.71-7-1.81-14.1-5.22-20.44-2.16-4-4.41-8.17-7.93-11.08-7.24-6-17.71-5.37-27.06-4.42-3,.31-6.24.75-8.23,3-1.41,1.58-1.91,3.77-3.13,5.49-1.66,2.35-4.46,3.56-7.11,4.66l-19,7.9c-3.15,1.31-6.55,2.84-8.1,5.88-2.53,4.93,1.08,10.72,1.25,16.26.13,4.27-1.84,8.31-2.65,12.51s.06,9.41,3.93,11.26"/><circle class="cls-4" cx="106.8" cy="61.15" r="21.37"/><circle class="cls-4" cx="260.17" cy="184.98" r="21.37"/><circle class="cls-4" cx="112.39" cy="180.99" r="21.37"/><circle class="cls-4" cx="200.99" cy="223.72" r="21.37"/><text class="cls-5" transform="translate(99.21 68.83)">o</text><text class="cls-5" transform="translate(194.52 231.41)">t</text><text class="cls-5" transform="translate(252.75 191.67)">n</text><text class="cls-5" transform="translate(103.8 188.67)">b</text></svg>