<svg id="Laag_1" data-name="Laag 1" xmlns="http://www.w3.org/2000/svg" viewBox="0 0 362.25 300.06"><defs><style>.cls-1{fill:#7b952d;}.cls-2{fill:#e6dfc5;}.cls-3{fill:#5c7873;}.cls-4{fill:#e1bddb;}.cls-5{font-size:25px;fill:#1d1d1b;font-family:KumbhSans-Bold, Kumbh Sans;font-weight:700;}</style></defs><path class="cls-1" d="M42.88,89c-2.51,6.15-8.77,9.93-12.21,15.61s-1.12,15.74,5.48,15a10.73,10.73,0,0,0,6.17,19.77c3,7.09-2.41,16.33,2.18,22.51,3.51,4.73,11,4.71,14.92,9.1,4.79,5.36,2,14.35,5.9,20.41,1.61,2.52,4.21,4.26,6,6.69,5.46,7.61,3,21.67,12,24,5.69,1.49,10.71-3.62,16-6.3,10.13-5.2,24.19,0,28.46,10.58a37.42,37.42,0,0,0,2.4,5.85c3.58,5.78,12.27,6.2,18.28,3s10.17-8.92,14.76-13.94,10.44-9.75,17.24-9.8c4.66,0,9,2.14,13.38,3.73,15,5.47,31.86,4.21,47.09-.65s29.12-13.12,42.62-21.68c4.41-2.79,9.21-6.25,9.94-11.42.65-4.57-1.89-10.18,1.49-13.33,1.6-1.51,4-1.73,6.13-2.14,14.17-2.7,24.62-18,22-32.21-1.68-8.91-7.73-17.2-6.43-26.17,1.6-11.08,14.09-19.78,11.69-30.71-.92-4.21-4-7.6-7.09-10.56C315.5,61,308.47,56.15,300.71,56.6,284.64,57.53,276,80,259.93,80.31c-2.6.06-5.23-.49-7.78,0-6.33,1.31-10.39,8.86-16.85,9-4.69.08-8.36-3.82-12.6-5.81-9.11-4.27-19.69.56-28.56,5.31-11.55,6.19-23.37,12.58-32,22.46-5.64,6.45-12.54,15.24-20.6,12.33-10-3.64-6.52-19.7-13.52-27.76-6.37-7.33-18-5-27.53-3.22-2.59.48-5.31.86-7.82.05a21.18,21.18,0,0,1-5-2.8C71.45,79.2,58,76.71,42.88,89"/><path class="cls-2" d="M36.4,85.17a18.62,18.62,0,0,1-1.54,2.89A14.88,14.88,0,0,0,34,89.31c.74-.93.85-1.09.36-.48-.14.17-.28.34-.43.5C32.51,91,31,92.48,29.5,94.05c-3.18,3.39-6.39,7.25-7.37,11.92a20.86,20.86,0,0,0,1.69,13.9c2.27,4.45,7.26,7.64,12.33,7.24l-3.79-14c-6.61,4.41-10.25,12.69-8,20.52a18.68,18.68,0,0,0,17.94,13.23l-7.23-5.51a24.82,24.82,0,0,0,.7,2.44l-.14-1.15c0,.28.06.56.08.85s0,.71,0,1.07a46.83,46.83,0,0,1-.35,5.29c-.4,3.79-.72,7.78.52,11.47a17.83,17.83,0,0,0,8.63,10.16A58.33,58.33,0,0,0,50,173.88l.93.38c.93.37-1.82-.82-.49-.21a24.77,24.77,0,0,1,2.47,1.24c.27.16.54.39.82.53.83.4-1.42-1.32-.44-.35l.83.83c1.05,1-.87-1.5-.2-.22.19.35.39.7.59,1,.36.67-.18.57-.29-.69.08.88.57,1.86.75,2.75.08.4.14.81.21,1.23.21,1.22-.1-.66-.1-.75,0,.84.19,1.71.28,2.55a58.9,58.9,0,0,0,.94,6.6,22.52,22.52,0,0,0,6.47,11.1c.67.67,1.36,1.33,2,2a7,7,0,0,0,.62.71c-1.11-.91-.63-.86-.23-.23a16,16,0,0,1,1,1.76c.09.2.18.42.28.62-1.14-2.25-.35-.8-.13-.18,1.93,5.51,2.31,11.37,5,16.63a15.57,15.57,0,0,0,7,6.94c5.08,2.36,10.06,1.93,15.09-.28,3.36-1.47,6.2-3.81,9.43-5.5.29-.15.63-.27.89-.44-1.57,1.05-1.13.45-.38.18a18.17,18.17,0,0,1,2.18-.64c.25,0,.49-.11.74-.15.73-.14,1.65.07-.5,0,.88,0,1.76-.13,2.65-.11.63,0,1.27.12,1.9.13-2.23,0-1.18-.17-.49-.05l1.12.23c.62.15,1.23.32,1.84.52l1.08.38c1.22.43-1.82-.86,0,0,1.28.61,2.38,1.46,3.59,2.16-1.77-1-.85-.68-.33-.23.2.16.39.33.57.5.65.6,1.24,1.26,1.83,1.92,1,1.08-1-1.53-.25-.32.13.21.28.41.42.63.42.64.76,1.31,1.12,2,.71,1.33-.73-2-.1-.25l.36,1a51.06,51.06,0,0,0,1.87,4.76,17.77,17.77,0,0,0,10,8.81c7.23,2.82,16,.94,22.16-3.51a56.52,56.52,0,0,0,9.21-8.55,98,98,0,0,1,7.61-8.17c.36-.32.72-.64,1.09-.95l.38-.31c.62-.5.5-.4-.38.29,0-.06,1.74-1.2,2-1.35.42-.25,2.33-.95,2.49-1.33l-.93.39c.28-.12.57-.22.87-.33s.88-.28,1.33-.39A5.86,5.86,0,0,0,180,219l-1.07.15c.31,0,.63-.06.94-.07.52,0,1,0,1.54,0,1.5,0-.37-.1-.41-.09.69-.24,2.43.52,3.12.73,1,.3,2,.67,3.06,1.05a86.07,86.07,0,0,0,11.93,3.88A75.54,75.54,0,0,0,213,226.31a89.36,89.36,0,0,0,25.77-3.26c16.43-4.44,31.47-12.94,45.78-21.92a64.71,64.71,0,0,0,10-7.11,19.71,19.71,0,0,0,6.42-12.51,24,24,0,0,0-.07-4.79c-.09-.87-.18-1.75-.22-2.62,0-.42,0-.85,0-1.27,0-.2,0-.4,0-.61.05-.6,0-.27-.14,1l.09-.38c.23-.75.1-.51-.38.7l.18-.34c.41-.64.25-.45-.48.56,1-1.09-1.49.89-.18.12,1.08-.63-.49.29-.61.23a5.91,5.91,0,0,0,1.27-.35c.44-.11.88-.18,1.32-.27.91-.16,1.81-.31,2.71-.54,14.86-3.76,25.53-18.05,26.43-33.08.48-8-2.87-15-5.39-22.28a39.15,39.15,0,0,1-1.44-5.19l-.08-.48c-.13-.82-.11-.63.06.56a5.06,5.06,0,0,0-.12-1.43,16,16,0,0,0,.1-2.91l-.14,1.11c0-.26.09-.51.15-.77s.18-.77.28-1.15c.18-.64.41-1.25.62-1.88.49-1.42-.79,1.69-.14.32.17-.37.33-.73.51-1.1.36-.73.75-1.44,1.14-2.15,3.22-5.72,7.56-11.09,9-17.62a21,21,0,0,0-.66-12.21,32.28,32.28,0,0,0-8.13-11.45c-6.55-6.25-14.28-11.4-23.51-12.12-6.49-.51-13,2.06-18.2,5.83-4.89,3.56-9.09,7.83-13.6,11.81-1,.86-2,1.67-3,2.5,2.07-1.73.11-.11-.43.27s-1.13.76-1.71,1.11-1.16.68-1.75,1-2.5.92,0,.07a33.53,33.53,0,0,1-3.79,1.11c-1.35.29,2-.18.66-.08-.33,0-.67.06-1,.07a24.68,24.68,0,0,1-2.58,0,26.91,26.91,0,0,0-7.91.44c-4,1-7.12,3.46-10.24,5.93-.51.4-2.79,1.94-.64.52-.53.35-1,.76-1.56,1.11s-1.36.69-1.94,1.12c1.38-1,1.29-.49.43-.22-.33.11-.74.14-1.06.28,1.4-.64,1.58-.13.52-.11h-.45c-.82-.06-.6,0,.67.12a5.5,5.5,0,0,0-1.27-.33c-1.46-.35,1.25.64.36.18a54.91,54.91,0,0,1-4.73-2.8,28.13,28.13,0,0,0-13.38-4.56,33.4,33.4,0,0,0-12.9,2c-7.91,2.68-15.34,6.95-22.57,11.08a106.25,106.25,0,0,0-20,14.2c-2.65,2.48-4.95,5.26-7.36,8-1.1,1.24-2.22,2.45-3.41,3.6-.64.61-1.31,1.19-2,1.77-1.13,1,1.17-.82.34-.24-.4.28-.79.56-1.2.83-.68.43-1.44.72-2.12,1.15,1.59-1,1.21-.44.53-.27-.31.07-.62.16-.92.25-1.38.42,1.94-.06.5,0h-1.14c-1.44,0,1.84.5.44,0-.38-.12-.79-.23-1.18-.34-1.27-.37,1.73.89.61.23l-.8-.46c-1.09-.63,1.41,1.34.55.45-.14-.14-.3-.27-.44-.4s-.4-.45-.61-.65c-.9-.87,1.12,1.63.45.57-.33-.52-.65-1-.93-1.58-.14-.28-.26-.57-.4-.85,1.09,2.18.5,1.19.29.6s-.36-1-.52-1.57c-.4-1.32-.71-2.66-1-4-.61-2.72-1.12-5.47-2-8.13a27.83,27.83,0,0,0-5.21-9.78,21.34,21.34,0,0,0-10.1-6.34c-7.27-2.19-15.16-.84-22.45.48l-2.09.38-1.45.26c-1.79.34,1.71,0-.11,0-.35,0-2.42.33-2.62,0l1,.12a8.8,8.8,0,0,1-1-.26c-.78-.28-.66-.23.35.16-.31-.15-.62-.32-.92-.5-3.53-2-6.81-4.45-10.47-6.3-7-3.52-14.89-6.15-22.82-5.43-8.9.81-16.37,4.74-23.26,10.27A7.52,7.52,0,0,0,35.38,89a7.65,7.65,0,0,0,2.19,5.31,7.56,7.56,0,0,0,5.31,2.19,8.66,8.66,0,0,0,5.3-2.19c1.49-1.2-1.29.9.23-.19.44-.31.87-.63,1.31-.93.7-.49,1.42-1,2.16-1.4s1.69-1,2.57-1.42l.86-.4c.73-.33.56-.27-.52.19l.85-.33a28,28,0,0,1,4.65-1.31c.65-.12,1.89,0-.3,0a8,8,0,0,0,.84-.09,26.8,26.8,0,0,1,3-.1c.7,0,1.41,0,2.12.12s1.92.45-.29-.05c.28.06.57.09.85.14a37.08,37.08,0,0,1,5.19,1.38l1.31.48.44.17c.74.3.59.23-.47-.21.21.39,1.81.81,2.23,1,1.86.91,3.68,1.91,5.46,3,3.72,2.24,7.19,5.19,11.58,6,4.77.86,9.37-.26,14-1.08.72-.13,1.43-.25,2.15-.36.43-.07.87-.11,1.3-.2-2.26.49-.82.11-.26,0a46.89,46.89,0,0,1,5.16-.34c.7,0,1.4,0,2.09.06.41,0,.83.12,1.23.11-1.84,0-1.39-.22-.79-.1.78.16,1.56.31,2.32.54a8.09,8.09,0,0,0,1.11.38l-1.07-.47.7.34c.69.35,1.3.88,2,1.23-.13-.07-1.38-1.24-.6-.42.28.29.59.55.87.85.47.51.91,1.46-.27-.43.11.19.26.36.38.55a16.42,16.42,0,0,1,1.17,2c.84,1.71-.63-1.7.05.1.25.65.47,1.31.67,2,.38,1.25.69,2.52,1,3.79,1.37,6,2.48,12.19,6.62,17.06,5.5,6.46,14.75,7.12,21.9,3.22,6.43-3.5,10.57-9.65,15.54-14.78,1.28-1.32,2.62-2.57,4-3.78.63-.54,1.27-1.08,1.92-1.6.39-.31,1.41-1.46.06-.06a11.29,11.29,0,0,1,1.41-1.06c3-2.23,6.25-4.26,9.51-6.19s6.76-3.82,10.18-5.66c1.66-.89,3.33-1.78,5-2.63.79-.39,1.58-.77,2.38-1.13a11.69,11.69,0,0,1,1.45-.65c-1.89.58-.21.1.17,0a41.06,41.06,0,0,1,5.45-1.72c.49-.11,1-.22,1.49-.31l.5-.09c.83-.13.66-.1-.5.07,0,0,2.7-.14,3-.13a13.1,13.1,0,0,0,1.46.09c0,.09-1.92-.37-.54-.07,1,.22,1.91.48,2.87.77,1.57.5-1.05-.56-.19-.07.33.19.68.34,1,.53.88.48,1.73,1,2.57,1.57,3.73,2.4,7.6,4.46,12.15,4.62a18.05,18.05,0,0,0,11-3.76c1.57-1.14,3.08-2.36,4.6-3.57.41-.32,1.08-.62-.58.45.32-.2.62-.46.94-.69a19.82,19.82,0,0,1,2-1.22c.33-.18.7-.32,1-.5-1.77,1-1.08.44-.38.24a5.05,5.05,0,0,0,.74-.19l-.9.11a10.14,10.14,0,0,1,1.1-.06c2.1-.05,4.18.29,6.27.16,6.92-.43,12.68-3.51,18-7.69,4.24-3.31,7.95-7.22,12-10.72.53-.46,1.08-.9,1.63-1.35.88-.73-.69.52-.69.52a7.28,7.28,0,0,1,.84-.62,32,32,0,0,1,3.44-2.22c.49-.27,1-.53,1.49-.76s1.66-.49-.57.22c.32-.1.62-.23.94-.34q.78-.27,1.59-.48c.32-.08.65-.15,1-.21,1.71-.33-1.11.07-.49,0s1.52-.11,2.3-.09a5.8,5.8,0,0,0,1.42.09c-.12.08-1.88-.36-.58-.06a26.66,26.66,0,0,1,2.76.72c.37.12.74.27,1.12.4.53.21.3.11-.68-.29l.87.41a33.19,33.19,0,0,1,4.61,2.78l.4.29c.64.48.53.39-.33-.28a6,6,0,0,1,.77.62c.89.73,1.76,1.48,2.6,2.26a46.9,46.9,0,0,1,3.58,3.61,10.7,10.7,0,0,1,.78.92l-.58-.76.55.78c.53.78.87,1.71,1.4,2.47l-.39-.92q.17.45.3.9c.13.43.21.87.32,1.3.31,1.23-.13-.88-.11-.85.14.21.06.89.07,1.13s0,.75,0,1.12c0,1.39.35-1.65.12-.71-.19.79-.32,1.57-.57,2.35-.18.6-.44,1.18-.64,1.78.82-2.46-.08,0-.4.67-.71,1.36-1.51,2.69-2.32,4-1.61,2.62-3.32,5.19-4.71,7.94a31.88,31.88,0,0,0-3.56,11.89,31.14,31.14,0,0,0,1.76,12c1.18,3.66,2.76,7.18,3.93,10.85.54,1.69.8,3.43,1.26,5.13-.49-1.82-.15-1.39-.11-.79,0,.41.07.81.09,1.22a22.9,22.9,0,0,1,0,2.62c0,.33,0,.67-.07,1-.06.69-.49,1.74.07-.39-.17.65-.23,1.33-.38,2s-.4,1.57-.64,2.34c-.09.26-.17.52-.26.77-.21.59-1.1,2.17,0,.1-.71,1.31-1.28,2.67-2.08,4-.36.58-.75,1.13-1.13,1.69-.87,1.25,1.16-1.39.18-.23-.35.42-.69.84-1.05,1.24a28.49,28.49,0,0,1-3.07,3c-.48.41-1.25.68.41-.29-.34.2-.66.48-1,.71-.66.45-1.35.88-2.05,1.28s-1.49.67-2.17,1.08c1.48-.91,1.24-.49.68-.29l-1.14.41a37.44,37.44,0,0,1-4.9,1.14c-5.13,1-9.52,4.21-11,9.37-1.14,3.83-.19,7.46-.21,11.32a9.29,9.29,0,0,0-.06,1.28c-.22-1.38.25-1.45,0-.52a4.84,4.84,0,0,0-.32,1l.43-1c-.12.26-.25.5-.39.75s-.64.79-.68,1.06c0-.13,1.22-1.4.39-.51a27.51,27.51,0,0,1-2.17,2.15c-.22.19-.48.37-.69.57,1.47-1.42.55-.42.09-.09-.66.48-1.34.94-2,1.38-1.66,1.08-3.35,2.13-5,3.18a242.51,242.51,0,0,1-21.11,12q-2.66,1.31-5.36,2.51l-1.48.65c-1.7.74,1.54-.62-.19.07-1,.41-2,.81-3,1.19a102.11,102.11,0,0,1-11.76,3.69c-1.82.45-3.65.85-5.5,1.18-1,.18-1.93.32-2.9.48-1.85.28,1.72-.18-.13,0l-1.6.17a72.4,72.4,0,0,1-12.23.22c-.88-.06-1.76-.13-2.64-.23-.57-.06-2.07.1-.11,0a8.42,8.42,0,0,1-1.57-.25,57.63,57.63,0,0,1-5.69-1.24c-4-1.08-7.72-2.84-11.65-4.08a25.21,25.21,0,0,0-14.42-.49,32.53,32.53,0,0,0-11.53,6.46C157,216,152.92,222.16,147.45,227c-1.27,1.12,1.39-.94,0,0-.39.27-.78.55-1.19.81a22.28,22.28,0,0,1-2,1.16c-.73.36-1.43.23.37-.13a11.25,11.25,0,0,0-1.11.39c-.76.23-1.53.39-2.31.55-1.47.3,1.94-.12.43-.08l-.78.05c-.78,0-1.56-.1-2.33-.1,2.05,0,1.34.24.67.06-.31-.08-.62-.14-.92-.23s-.72-.28-1.07-.35c1.21.54,1.47.64.77.31-.22-.1-.43-.22-.65-.34s-.41-.27-.62-.39c-1.19-.72,1.32,1.27.37.26a6.56,6.56,0,0,0-.78-.8c1.13.77.85,1.26.49.62-.23-.41-.48-.83-.72-1.24-.88-1.52.49,1.53-.05-.15-.32-1-.69-2-1.08-3a27,27,0,0,0-6.41-9.82,30.42,30.42,0,0,0-19.74-8.29A25.14,25.14,0,0,0,98.62,208c-3.62,1.43-6.65,3.57-10,5.54-.39.23-.79.46-1.2.68a5.13,5.13,0,0,0-1.22.6c.1-.13,1.74-.6.57-.26-.41.12-.84.24-1.24.37-1.46.49,1.84,0,.31,0H85c-1.51.07,1.75.48.26,0l-.62-.19c-.71-.26-.4-.13.93.41-.39-.25-.86-.55-1.27-.76,2.56,1.31.26.61.07-.22,0-.13,1.16,1.79.64.82-.13-.25-.32-.49-.47-.75-.41-.72-1-2.65-.17-.16-1.81-5.53-2.58-11.31-4.94-16.66C78,194.08,75.56,191.52,73,189c-.33-.33-.66-.67-1-1l-.32-.35c-.5-.62-.4-.48.31.4a10.5,10.5,0,0,0-1-1.84c1,1.33.45,1.13.17.26-.08-.26-.16-.52-.23-.79-.25-.95-.34-1.93-.56-2.88.56,2.43,0,.14,0-.54-.09-.85-.18-1.7-.28-2.55a41.81,41.81,0,0,0-1-6.07,19,19,0,0,0-7.92-10.84,23.48,23.48,0,0,0-3.87-2c-1.09-.47-2.19-.92-3.29-1.37L52.87,159c2.22.87.65.28.15,0a17.29,17.29,0,0,1-1.89-1c-.75-.47-.8-1,.27.29a6.91,6.91,0,0,0-.57-.51c-.27-.26-.51-.62-.79-.85l.69.87a7.45,7.45,0,0,1-.43-.71c-.79-1.19.44,1.39.18.49-.14-.45-.26-.91-.39-1.36-.41-1.46.1,1.91,0,.38,0-.35,0-.7-.06-1,0-.79,0-1.57.06-2.35.1-1.62.31-3.23.46-4.85.34-3.62.33-7.51-1-10.93-1.22-3.08-3.68-5.57-7.23-5.51a8,8,0,0,1-.85,0c-.81-.06-.56,0,.73.13a7.63,7.63,0,0,0-1.23-.29l-.8-.28c1.14.5,1.35.57.64.23-.35-.23-.73-.45-1.09-.66-.63-.45-.46-.32.51.4a8.37,8.37,0,0,1-.62-.57c-.2-.2-.4-.41-.58-.62l.64.86a8.13,8.13,0,0,0-.89-1.44c-.72-1.2.55,1.73.06,0a5.84,5.84,0,0,1-.15-.6c-.15-.79-.13-.53.07.78a13.71,13.71,0,0,0,0-1.43c.07-1.79-.43,1.55,0,.16.12-.46.26-.92.38-1.39s.07-.26-.38.84c.12-.25.24-.5.37-.74s1.19-1.58.3-.62.31-.3.49-.48c1.43-1.39-1,.61.09-.1,2.68-1.79,4.5-5.2,3.44-8.47-1-3-3.88-5.77-7.23-5.5-.31,0-.64,0-.94,0,1.85-.28,1.69.36.83.08-1.15-.38,1.75.89.75.33-1.34-.75.84.86.49.45a6.92,6.92,0,0,0-.61-.6c-.5-.45,1.13,1.8.48.57-.14-.27-.29-.55-.45-.8-.39-.61.68,2,.28.62a20.36,20.36,0,0,1-.5-2.07c.09,0,.21,2.35.13.65,0-.34,0-.68,0-1a5,5,0,0,1,.07-1s-.41,2.29-.06.64c.14-.67.38-1.28.57-1.93-.57,2-.55,1.25-.19.6.2-.36.42-.7.64-1s.53-.72.77-1.08c-1.11,1.73-.42.54-.07.13,1.15-1.37,2.41-2.64,3.64-3.93,2.85-3,5.77-6.15,7.39-10,.82-1.94,1.34-3.66.76-5.78a7.67,7.67,0,0,0-3.45-4.48c-3.21-1.7-8.62-1.17-10.26,2.69Z"/><path class="cls-3" d="M155.13,89.52a9.62,9.62,0,0,0,1.75,13.42c1.73,1.23,3.83,1.83,5.62,3,5.79,3.73,6.64,11.85,5.76,18.68a5.1,5.1,0,0,0,.19,3c.72,1.41,2.52,1.76,4.06,2.11,7.58,1.75,13.63,7.21,19.9,11.8s14,8.6,21.51,6.83a16,16,0,0,0,12-13.9c.37-4.43-1.13-9.15.69-13.21,2.5-5.62,10.25-7.5,12.53-13.2,2.87-7.15-4.53-14.1-6.11-21.64-1-4.75.39-9.78-.78-14.49-1.42-5.67-6.57-10-12.27-11.28s-11.79.1-16.9,2.94c-5.57,3.1-10.36,7.91-16.59,9.27-4.92,1.07-10-.2-15-.54s-10.75.62-13.64,4.74c-2.33,3.31-2.91,8.47-2.67,12.51"/><circle class="cls-4" cx="239.2" cy="109.98" r="21.37"/><circle class="cls-4" cx="80.24" cy="157.91" r="21.37"/><circle class="cls-4" cx="239.2" cy="195.46" r="21.37"/><circle class="cls-4" cx="322.28" cy="115.18" r="21.37"/><text class="cls-5" transform="translate(71.22 163.83)">p</text><text class="cls-5" transform="translate(235.69 118.67)">i</text><text class="cls-5" transform="translate(319.77 123.86)">l</text><text class="cls-5" transform="translate(236.28 203.14)">j</text></svg>