<svg id="Laag_1" data-name="Laag 1" xmlns="http://www.w3.org/2000/svg" viewBox="0 0 362.25 300.06"><defs><style>.cls-1{fill:#7b952d;}.cls-2{fill:#e6dfc5;}.cls-3{fill:#5c7873;}.cls-4{fill:#e1bddb;}.cls-5{font-size:25px;fill:#1d1d1b;font-family:KumbhSans-Bold, Kumbh Sans;font-weight:700;}</style></defs><path class="cls-1" d="M92.79,136.84c9.71,9.18-7.12,26.13-.65,37.71,2.06,3.68,6.43,6.51,2,12.29A13.59,13.59,0,0,1,90,190.2c-7.36,4.2-11.22,15.27-5.49,21.57,4.83,5.32,15.28,6.78,15.42,13.89.11,5.87-7.46,8.85-10,14.16-2.48,5.14.18,10.47,4.25,15a9.44,9.44,0,0,0,12.32,1.42c10.65-7.33,22.16-13.85,35-14,18.15-.27,37.14,12.15,53.26,4,6.89-3.48,11.25-9.88,14.56-16.9a14.1,14.1,0,0,1,14.53-7.95c3.54.43,7.1.69,10.66.77a5.87,5.87,0,0,0,5.26-9c-1.63-2.54-3.49-5.18-3.8-8-1-8.72,12.48-12.11,20.14-12.95a13.6,13.6,0,0,0,11.11-7.76C270.75,176.4,261,174,260.53,168a10.83,10.83,0,0,1,1.39-5.14l7-15.15c1.7-3.67,3.49-7.48,6.64-10.08s7.49-3.76,11.49-5.13a69.9,69.9,0,0,0,29.14-19.22,13.4,13.4,0,0,0,3.17-5.77c1.91-8-4.94-11.82-10.93-14.63L284.37,81.65c-4.51-2.12-9.16-4.27-14.16-4.67-5.62-.44-11.13,1.37-16.6,2.71-16.28,4-36.15,2.56-46.2-10.54-4.18-5.45-6.33-12.54-11.88-16.68-6.19-4.61-14.75-4.21-22.52-3.6C139.5,51.51,110.15,42,76.64,44.64c-2.78.22-12.38,5.86-11.12,16,.89,7.1,2.74,10.48,6.79,13.61,4.6,3.55,12.9,7,12.4,12.64-.37,4.26-.78,7.19.42,11.31.85,2.92.33,5.51.73,8.52s1.64,7.4.6,10.35c-2.29,6.5.1,16.6,6.33,19.81"/><path class="cls-2" d="M87.49,142.14c.65.63,1.45,2.1.08-.1.26.43.52.86.79,1.29.56.92-.69-2-.37-.89.07.24.17.46.23.7a10,10,0,0,1,.31,1.44l-.27-2a15.71,15.71,0,0,1,0,4.11l.27-2c-.67,4.94-2.68,9.57-4,14.36-1.71,6.32-2.1,12.79.88,18.8a28,28,0,0,0,2.31,3.51c.39.55.74,1.12,1.07,1.7.67,1.16-.48-1.57-.26-.63.08.36.19.71.24,1.09l-.27-2a6.54,6.54,0,0,1,0,1.17l.27-2a8.78,8.78,0,0,1-.35,1.43c-.25.84.8-1.54.3-.76-.16.24-.28.49-.43.73s-.78,1.07-.07.16-.09,0-.24.2l-.59.56c-.92.87,1.14-.78.39-.29a38,38,0,0,0-6.17,4.52,24.19,24.19,0,0,0-6.86,12.51c-.93,5.15-.48,10.68,2.67,15.06,2.79,3.87,6.68,6.29,10.78,8.56.84.47,1.68.94,2.5,1.45.38.23.75.46,1.11.71l.47.33c1,.69-1.48-1.24-.64-.49.33.3.67.59,1,.92,1.08,1.15-1.07-1.63-.22-.31.21.33.82,1.67.2.23s0,.17,0,.6l-.27-2a7.7,7.7,0,0,1,0,1.73l.27-2a11.49,11.49,0,0,1-.32,1.41c-.34,1.19.92-1.8.29-.74-.12.21-.23.43-.36.64s-.29.4-.42.61c1.08-1.81,1-1.17.52-.68s-.84.94-1.28,1.38c-1.61,1.62-3.36,3.09-4.84,4.84a19,19,0,0,0-4.77,11.28,19.9,19.9,0,0,0,3,11c3.78,6.42,10.08,11.84,18,11a18.77,18.77,0,0,0,6.51-1.85,35.17,35.17,0,0,0,3.83-2.47c2.57-1.7,5.18-3.34,7.88-4.84q2.28-1.27,4.65-2.4c.79-.37,1.6-.69,2.38-1.07-1.87.91-.9.38-.4.18l1.41-.53a48.2,48.2,0,0,1,10-2.53l-2,.27a45.35,45.35,0,0,1,11.64.07l-2-.27c12,1.62,23.48,6.54,35.7,6.62a34,34,0,0,0,18.81-5.14,40.31,40.31,0,0,0,12.73-14.05c.78-1.36,1.47-2.77,2.16-4.18.33-.67.72-1.29,1.1-1.93.6-1-.53.65-.52.65a4.64,4.64,0,0,1,.95-1.08l.52-.5c1.4-1.27-1.18.73-.13.06.6-.38,1.21-.74,1.83-1.09s1.16-.3-.82.32c.4-.12.78-.29,1.18-.42a16.28,16.28,0,0,1,2.28-.5l-2,.27c3.59-.44,7.32.42,10.92.62a24.29,24.29,0,0,0,7-.31,13.53,13.53,0,0,0,6.07-3.46,13.4,13.4,0,0,0,3.52-13,22.4,22.4,0,0,0-3-5.7c-.24-.39-.47-.78-.69-1.18-.15-.25-.37-1-.62-1.19.45,1.12.53,1.31.25.58l-.14-.41a10.33,10.33,0,0,1-.36-1.65l.27,2a8.71,8.71,0,0,1,0-1.84l-.27,2c.07-.41.17-.8.27-1.21s.46-1.15-.11.21-.23.5-.06.24l.32-.53c.35-.59.89-.61-.66.81.31-.28.57-.65.87-.94s1.44-1.2.25-.28.17-.09.48-.29a25,25,0,0,1,2.55-1.37c.52-.24,1.47-.52-.83.34l.57-.22c.47-.19.95-.36,1.43-.52,1-.33,1.94-.61,2.93-.87a53.29,53.29,0,0,1,5.63-1.09l-2,.27a31.12,31.12,0,0,0,6.85-1.27,23.64,23.64,0,0,0,7.64-4.51c3.62-3.19,6.36-8.42,6.15-13.32-.2-4.47-2.37-8-5.29-11.18l-1.35-1.45c-.22-.24-.44-.48-.65-.73-.48-.56-.9-1.56.42.59-.33-.53-.66-1-1-1.57s-.13-.27.5,1.16a3.59,3.59,0,0,1-.14-.43c-.07-.31-.14-.6-.18-.91l.26,2a7.39,7.39,0,0,1,0-1.56l-.27,2c.14-.75.44-1.42.61-2.15-.39,1.7-.4.95-.12.33l.51-1.12,2.23-4.82q2.16-4.71,4.34-9.41c.51-1.11,1-2.22,1.58-3.31.68-1.31,1.68-2.51,2.31-3.82-.65,1.35-.86,1.05-.42.56.27-.3.52-.61.81-.9s.38-.38.57-.56,1.23-1,.19-.21.07,0,.25-.15l.71-.44c.71-.41,1.55-.69,2.24-1.13-1.49,1-1.09.44-.43.19l1-.37c.67-.24,1.34-.47,2-.69,1.34-.45,2.69-.88,4-1.37a86.65,86.65,0,0,0,9.14-3.92A78.2,78.2,0,0,0,314.89,125c4.85-4.12,10.14-9.09,11.69-15.49A17.39,17.39,0,0,0,321,91.93c-4.38-3.69-9.57-5.84-14.71-8.25l-18.15-8.51c-7.21-3.37-14.59-6.49-22.74-5.58-7.1.79-13.84,3.23-20.91,4.21l2-.26a62.33,62.33,0,0,1-16,.14l2,.27a43.54,43.54,0,0,1-9.92-2.47l-.48-.19c-.83-.32,1.65.72.84.36l-1.09-.5c-.78-.37-1.53-.77-2.27-1.2s-1.27-.77-1.88-1.18l-1-.69c-.71-.51,1.39,1.11.71.55l-.66-.54a28,28,0,0,1-3.38-3.42,4.82,4.82,0,0,1-.44-.55c-.07-.12,1.07,1.46.61.79-.25-.37-.52-.73-.77-1.1-.53-.8-1-1.61-1.53-2.44a89.41,89.41,0,0,0-6.8-10.62C198.5,43.3,189.12,40.93,180,41c-4.27,0-8.51.54-12.77.7-4.51.18-9,.16-13.53,0C135.84,41,118.22,38,100.42,37c-4.54-.26-9.1-.39-13.66-.33-2.24,0-4.48.1-6.72.23a29.57,29.57,0,0,0-6.17.64c-6.31,1.75-11.75,7.16-14.25,13.08A22.18,22.18,0,0,0,58,57.47a26.73,26.73,0,0,0,.56,6.79A24.23,24.23,0,0,0,62.36,74.5a31.37,31.37,0,0,0,8.71,8c1.32.86,2.66,1.68,4,2.57l1,.68c1.29.92-1.21-1-.35-.27A19.75,19.75,0,0,1,77.34,87c.13.14.25.3.39.44.41.43-.74-1-.74-.94a3.56,3.56,0,0,0,.52.83c.18.27.46,1-.08-.28s-.25-.66-.19-.4.18.69.23,1l-.27-2c.21,2.31-.39,4.69-.37,7a33.78,33.78,0,0,0,.52,5c.23,1.41.71,2.77.93,4.19L78,100c.25,2.15.09,4.32.32,6.47.27,2.44.79,4.83,1.12,7.26l-.27-2a17.32,17.32,0,0,1,.11,3.94l.26-2c-.16,1.06-.58,2-.8,3.1a28.7,28.7,0,0,0-.62,4.78,27.1,27.1,0,0,0,.94,8.16c1.45,5.49,4.82,10.89,9.94,13.63,3.46,1.85,8.32,1,10.26-2.69,1.84-3.49,1-8.29-2.69-10.26-.44-.24-.83-.53-1.26-.78,1.76,1,1.15.92.59.42l-.54-.53c-.17-.18-.33-.38-.51-.56-.82-.89.89,1.29.51.66s-.64-1-.92-1.46c-.06-.11-.71-1.43-.71-1.43s.78,2,.33.73c-.08-.26-.18-.51-.26-.77a21.54,21.54,0,0,1-.79-3.54l.27,2a20.1,20.1,0,0,1,0-5.14L93,122c.4-2.73,1.43-5.21,1.37-8-.07-3.11-.84-6.16-1.27-9.23l.26,2c-.24-2-.1-4-.28-6.05-.23-2.57-1-4.94-1.36-7.47l.27,2c-.45-3.83.54-7.6-.06-11.4-.53-3.4-2.88-6.54-5.45-8.71a84.22,84.22,0,0,0-8.24-5.8c-.53-.35-1-.71-1.55-1.07-1.07-.74.92.77.56.45s-.55-.45-.81-.69a15.71,15.71,0,0,1-1.24-1.21,3.43,3.43,0,0,0-.55-.64c-.1-.06,1.09,1.5.74,1l-.32-.45a20.06,20.06,0,0,1-1-1.74c-.65-1.25.57,1.56.22.54l-.37-1A31,31,0,0,1,72.81,59l.27,2A15.75,15.75,0,0,1,73,57.15l-.27,2a14.61,14.61,0,0,1,.59-2.62c.07-.19.15-.38.21-.58.22-.73-.8,1.61-.4,1,.23-.37.39-.79.61-1.18s.4-.65.62-1c.11-.16.23-.31.33-.46-1.29,2-1,1.2-.56.75a17.7,17.7,0,0,1,1.59-1.65c.25-.23.51-.45.77-.67.67-.57-1.74,1.24-.54.43.53-.35,1.05-.69,1.6-1l.79-.4c.7-.37-2.16.77-1,.43a6.7,6.7,0,0,1,1.17-.3l-2,.26c14.35-1.42,29,0,43.26,1.56s28.66,3.3,43.1,3.12c7.56-.1,15.23-1.44,22.77-.52l-2-.27a26.3,26.3,0,0,1,4.64,1,11.25,11.25,0,0,0,1.11.39c-1.87-.41-1.06-.47-.36-.13a18.61,18.61,0,0,1,2.2,1.29c.61.42.74.95-.43-.35.24.27.59.49.86.75a19.9,19.9,0,0,1,1.55,1.63c.39.46,1,1.53-.23-.34.2.31.45.61.66.92.47.67.92,1.37,1.35,2.07,3.39,5.56,6.27,11.4,11.39,15.63C216.54,87.3,230,90,242.86,88.93a83.53,83.53,0,0,0,11.35-1.69c4.09-.91,8.1-2.18,12.25-2.8l-2,.27a26.79,26.79,0,0,1,7.1-.08l-2-.27a31.68,31.68,0,0,1,5.69,1.46l1.28.48.64.26c.77.29-.8-.34-.74-.32.92.35,1.81.8,2.7,1.21,3.82,1.77,7.62,3.57,11.43,5.35l11.57,5.43a57.84,57.84,0,0,1,8.15,4.25c.29.19,1.4,1,.27.15s-.05,0,.21.21.52.49.77.75.53.75.71.79c-.06,0-1.15-1.65-.64-.8.1.17.22.33.32.5.19.32.72,1.51.16.17s-.06-.11,0,.24a10.15,10.15,0,0,1,.25,1.22l-.27-2a11.17,11.17,0,0,1,0,2.71l.27-2a18.34,18.34,0,0,1-.64,2.5c-.23.75.31-.92.35-.84s-.25.49-.28.55c-.24.43-.5.83-.76,1.24-.67,1.07.41-.49.42-.51,0,.14-.31.37-.41.48q-.4.47-.84.93c-.66.71-1.34,1.41-2,2.1-1.29,1.27-2.63,2.5-4,3.67l-1.13.93-.49.39c-.63.52.76-.59.69-.53a28.84,28.84,0,0,1-2.37,1.74,70,70,0,0,1-9.59,5.66c-.75.37-1.52.73-2.29,1.07-.5.22-2.09.8.05,0-.46.17-.91.37-1.37.55-1.71.66-3.45,1.24-5.2,1.81-4.54,1.51-8.84,3.27-12.48,6.46-3.07,2.69-5.19,6.4-6.9,10.05-1.86,3.93-3.65,7.9-5.47,11.85-.9,1.94-1.83,3.86-2.68,5.83a16.94,16.94,0,0,0-1.55,10c.58,3.43,2.92,6.28,5.21,8.75.42.46.85.9,1.26,1.37l.57.65.23.28c.5.55-1.11-1.57-.73-.94s.63,1,.93,1.53c.14.24.38.88-.19-.46s-.21-.56-.14-.23.15.63.2.95l-.27-2a7.92,7.92,0,0,1,0,1.82l.27-2c-.08.5-.23,1-.35,1.45-.3,1.2.89-1.73.24-.53-.14.27-.27.54-.42.81s-.33.5-.48.76c-.66,1.13.94-1.06.42-.51s-.89,1-1.38,1.41c-.88.82,1.27-.88.54-.39-.25.17-.49.35-.75.51-.51.32-1.1.54-1.59.87,1.46-1,1.23-.49.43-.21-.29.1-.58.19-.88.27a16.48,16.48,0,0,1-2,.41l2-.27c-6.15.75-12,1.89-17.59,4.66-5.91,2.92-11.1,8.85-10.42,15.84a20.9,20.9,0,0,0,2.87,8.65c.57,1,1.22,1.93,1.83,2.9.1.16.19.32.3.48.57.84-.46-.83-.35-.92s.28,1.1.29,1.18l-.26-2a7.22,7.22,0,0,1,0,1.47l.27-2c0,.29-.12.57-.18.86-.23,1.07.81-1.54.38-.85-.12.21-.25.43-.36.64-.29.42-.22.32.24-.29s.54-.7.2-.32c-.26.21-1,.85.09,0s.28-.28,0-.09c-.47.23-.35.19.34-.13s.82-.33.32-.16c-.31.06-.62.15-.93.2l2-.27c-4.56.49-9.15-.9-13.69-.81a22.34,22.34,0,0,0-14.32,5.64c-3.36,2.92-4.85,6.92-7,10.65-.49.84-1,1.67-1.54,2.47-.25.38-.5.75-.77,1.11-.05.08-.45.62-.45.62s1.29-1.62.35-.46a29.94,29.94,0,0,1-4,4.06c-.23.19-.95.75,0,0s0,0-.16.1c-.42.29-.85.57-1.28.84s-.89.52-1.35.76l-.71.36c-.27.13-1.41.62-.19.11s-.6.21-.92.32c-.49.16-1,.31-1.47.44a29.57,29.57,0,0,1-3.37.68l2-.27a40,40,0,0,1-10.42-.16l2,.26c-10.56-1.47-20.63-5.21-31.28-6.34-11.54-1.22-22.76,2.26-32.83,7.7-2.65,1.43-5.22,3-7.74,4.64-1.23.81-2.43,1.65-3.66,2.46q-.39.25-.78.48c-1.38.76,1.2-.38.47-.15a14.94,14.94,0,0,1-1.89.48l2-.27a10.86,10.86,0,0,1-2.79,0l2,.26a16.87,16.87,0,0,1-1.7-.42c-1.15-.33,1.41.71.66.27l-.77-.43c-1-.55,1.13,1,.5.43-.22-.21-.45-.4-.66-.62a8.61,8.61,0,0,1-1.43-1.65c.14.26.93,1.28.36.46-.25-.36-.5-.71-.74-1.08a18.32,18.32,0,0,1-1-1.66c-.6-1.17-.14.19.15.47a3.07,3.07,0,0,1-.35-.95,12.64,12.64,0,0,1-.48-2.11l.27,2a11.25,11.25,0,0,1,0-2.72l-.27,2a15.93,15.93,0,0,1,.38-1.55c.2-.67.55-.49-.28.63a5.77,5.77,0,0,0,.29-.55c.18-.32.38-.62.58-.93s.68-.91-.11.12-.16.23,0,0c1.11-1.27,2.38-2.4,3.6-3.57,3.55-3.4,6.39-7.37,6.65-12.44a14.55,14.55,0,0,0-5.49-11.75c-2.92-2.38-6.2-4-9.4-5.92-.39-.24-.78-.49-1.16-.75l-.5-.34c-1-.67.55.38.67.55a22.45,22.45,0,0,0-1.93-1.83c-.43-.46-.24-.82.59.77-.1-.18-.24-.35-.35-.52-.21-.34-.91-1.86-.33-.47s0-.18-.12-.54a13.27,13.27,0,0,1-.3-1.5l.27,2a14.41,14.41,0,0,1,0-3.41l-.27,2a17.5,17.5,0,0,1,.53-2.49c.13-.42.28-.82.42-1.23.41-1.17-.92,1.94-.1.29a18,18,0,0,1,1.15-2c.39-.58,1.46-1.54-.2.2.3-.32.56-.67.86-1s.61-.62.94-.91c.56-.51,1.75-1-.26.15.69-.41,1.38-.88,2.06-1.3a21.24,21.24,0,0,0,6.75-6.59,13.88,13.88,0,0,0-.16-15.28c-.8-1.22-1.76-2.34-2.47-3.62-.18-.33-.33-.66-.49-1,1.16,2.31.49,1.2.28.52a13.88,13.88,0,0,1-.44-2.11l.27,2a19,19,0,0,1,.08-4.7l-.27,2c.79-5.53,3.16-10.66,4.41-16.08,1.65-7.08,1.14-14.53-4.36-19.86-2.82-2.74-7.84-3-10.61,0a7.62,7.62,0,0,0,0,10.6Z"/><path class="cls-3" d="M148,209.74c3.83,8.46,15.52,12.21,23.56,7.56,2.56-1.48,4.72-3.63,7.45-4.74,4.45-1.82,9.47-.59,14.28-.38s10.54-1.37,12-6c1-3.23-.54-6.85.52-10.07,1.3-4,6.25-6.28,6.59-10.45.3-3.66-3.22-6.53-6.7-7.71-9.58-3.25-20.57.87-30-2.69-2.4-.9-4.64-2.29-7.16-2.8-6.91-1.41-13.14,3.92-19.61,6.73-5.17,2.24-10.94,2.93-16,5.48s-9.37,8-7.92,13.43c.44,1.68,1.4,3.19,1.8,4.88,1.7,7.19-7,14.49-3.92,21.2,2.42,5.22,10.61,5,14.7,1s5.16-10.16,6-15.84"/><circle class="cls-4" cx="85.72" cy="93.17" r="21.37"/><circle class="cls-4" cx="159.22" cy="167.46" r="21.37"/><circle class="cls-4" cx="258.27" cy="93.17" r="21.37"/><text class="cls-5" transform="translate(152.19 175.15)">k</text><text class="cls-5" transform="translate(78.83 99.42)">a</text><text class="cls-5" transform="translate(247.68 99.86)">m</text></svg>